<?xml version="1.0" standalone="no"?>
<!DOCTYPE svg PUBLIC "-//W3C//DTD SVG 20010904//EN"
 "http://www.w3.org/TR/2001/REC-SVG-20010904/DTD/svg10.dtd">
<svg version="1.0" xmlns="http://www.w3.org/2000/svg"
 width="400.000000pt" height="400.000000pt" viewBox="0 0 400.000000 400.000000"
 preserveAspectRatio="xMidYMid meet">
<metadata>
Created by potrace 1.14, written by Peter Selinger 2001-2017
</metadata>
<g transform="translate(0.000000,400.000000) scale(0.100000,-0.100000)"
fill="#000000" stroke="none">
<path d="M1 2765 c0 -679 3 -1235 7 -1235 4 0 48 9 98 19 87 18 146 40 158 60
4 5 36 19 74 31 37 12 71 27 75 33 6 9 10 9 14 0 2 -7 9 -13 14 -13 6 0 8 4 4
9 -8 14 33 49 74 62 41 13 183 81 191 91 3 3 18 10 33 13 l27 7 0 -140 c0 -89
4 -143 11 -147 6 -4 12 -5 14 -3 2 2 7 73 10 158 7 161 18 200 59 208 14 3 16
-7 16 -72 0 -75 0 -76 25 -76 25 0 26 2 21 48 -2 26 -7 67 -12 90 -7 42 -6 44
17 40 l24 -3 -3 -122 -3 -123 26 0 26 0 -3 85 c-3 82 -2 85 19 85 19 0 21 -4
16 -35 -3 -18 -2 -81 2 -140 5 -80 10 -105 21 -105 15 0 18 22 14 129 -2 68 8
141 18 141 4 0 7 -17 6 -37 -1 -21 3 -51 9 -67 5 -16 6 -31 1 -35 -16 -11 -16
-41 1 -41 8 0 15 -6 16 -12 3 -57 12 -104 19 -106 20 -7 25 0 26 41 2 88 1 87
37 86 l32 -1 -30 -8 -30 -7 27 -7 c16 -5 25 -12 22 -17 -6 -10 26 -69 38 -69
4 0 8 -9 8 -21 0 -39 19 -8 26 41 5 40 10 50 25 50 17 0 19 10 20 118 1 64 4
105 6 91 3 -21 11 -28 34 -31 35 -5 40 16 7 27 l-23 7 25 8 25 8 -22 7 c-36
11 -28 33 12 33 35 0 35 0 36 -46 1 -26 0 -51 -1 -57 -1 -5 -2 -25 -3 -42 -1
-21 -6 -33 -15 -33 -9 0 -11 7 -7 20 5 14 2 20 -10 20 -11 0 -15 -7 -12 -27 3
-21 9 -28 27 -28 19 0 23 -6 26 -35 9 -91 13 -100 45 -100 l30 0 -2 148 c-4
319 0 412 16 412 11 0 15 -11 15 -40 0 -22 4 -40 9 -40 5 0 8 17 6 38 -2 20
-3 45 -4 54 -1 11 -7 15 -15 12 -8 -3 -17 -1 -20 5 -3 5 -20 8 -36 6 -17 -2
-36 2 -44 11 -8 7 -19 14 -25 14 -5 0 -12 10 -14 23 l-4 22 -2 -22 c-1 -25
-14 -28 -106 -23 -27 1 -63 3 -80 4 -26 1 -30 5 -31 31 -1 17 2 35 6 40 4 6
10 22 14 38 9 37 24 34 29 -5 4 -32 4 -32 5 5 2 31 -1 37 -19 37 -32 0 -20 34
14 38 35 4 35 19 0 34 l-28 11 33 9 c29 8 32 12 32 46 0 27 3 33 10 22 5 -8
12 -11 15 -8 13 13 -7 28 -36 28 -32 0 -37 11 -14 33 13 14 73 24 172 30 51 3
28 14 -47 21 -51 5 -70 11 -70 22 0 8 -9 14 -20 14 -11 0 -20 7 -20 15 0 12 4
14 16 7 18 -10 54 -5 54 8 0 4 9 10 20 13 13 3 18 10 14 21 -3 9 1 28 11 42
15 24 20 25 66 19 27 -4 49 -3 49 2 0 14 -22 33 -38 33 -8 0 -37 7 -66 15
l-53 15 0 45 c-1 27 4 45 11 45 6 0 4 5 -4 10 -11 7 -11 10 -2 10 7 0 10 5 7
10 -4 6 -11 8 -16 5 -16 -11 -9 7 9 21 15 12 13 13 -20 14 -21 0 -38 4 -38 9
0 13 50 20 51 7 0 -6 4 -2 9 9 5 13 2 26 -8 38 -13 14 -13 20 -4 26 17 10 12
133 -5 138 -6 2 -13 -6 -15 -19 -2 -13 -10 -23 -18 -24 -21 -1 -53 16 -63 32
-13 22 -43 16 -55 -10 -7 -16 -21 -25 -49 -29 -21 -3 -46 -8 -56 -12 -15 -6
-18 -4 -15 15 1 13 12 28 23 34 11 6 22 12 25 14 2 2 -2 8 -10 13 -11 8 -12
12 -2 16 7 3 12 22 12 47 0 23 4 46 9 52 11 11 3 64 -10 64 -5 0 -9 9 -9 20 0
11 -4 20 -8 20 -4 0 -9 14 -10 32 -3 32 -8 45 -16 37 -7 -6 -19 -70 -18 -91 1
-13 -7 -18 -29 -18 -16 0 -29 4 -29 9 0 14 30 42 40 36 4 -3 10 1 13 9 4 10
-4 12 -34 9 -38 -5 -39 -4 -39 25 0 21 -6 33 -18 36 -63 20 44 141 173 195 43
18 101 38 127 44 41 10 48 15 49 37 l1 25 7 -24 c6 -23 9 -24 93 -22 100 3
145 -8 243 -55 84 -40 130 -85 180 -178 36 -66 38 -72 47 -215 17 -271 13
-247 40 -242 48 8 81 6 85 -6 3 -7 -2 -13 -11 -13 -19 0 -20 -9 -2 -33 14 -18
15 -17 21 3 11 36 19 13 16 -50 -2 -38 2 -60 8 -60 8 0 8 -6 2 -17 -5 -10 -18
-53 -27 -96 -20 -89 -40 -121 -88 -138 l-34 -12 -4 -88 c-2 -65 -7 -92 -20
-106 -16 -17 -18 -41 -18 -173 0 -174 11 -250 48 -332 29 -66 43 -80 127 -130
89 -53 121 -68 151 -70 14 -2 30 -10 34 -19 5 -9 10 -66 11 -128 1 -68 5 -111
12 -111 6 0 8 39 5 114 l-5 114 77 -39 c43 -21 83 -39 89 -39 7 0 38 -13 69
-29 32 -16 76 -33 98 -37 21 -4 54 -13 71 -21 18 -7 36 -12 40 -11 5 1 17 -3
28 -9 30 -16 95 -26 95 -14 0 5 14 2 32 -6 17 -9 43 -16 59 -17 15 -1 25 -4
22 -8 -2 -5 1 -8 7 -8 17 0 108 -97 144 -153 91 -143 106 -215 106 -524 0
-185 2 -213 15 -213 12 0 13 -4 6 -19 -6 -10 -7 -21 -4 -25 3 -3 5 -57 4 -118
-4 -206 10 -478 24 -478 8 0 16 6 18 13 4 9 6 9 6 0 1 -10 86 -13 391 -13
l390 0 0 1608 c0 1150 -3 1611 -11 1619 -8 8 -8 17 0 31 14 27 15 446 1 437
-13 -8 -13 1 1 26 8 15 7 24 -3 37 -9 11 -10 14 0 8 9 -6 12 20 12 113 l0 121
-126 0 c-69 0 -134 -5 -145 -10 -13 -7 -19 -7 -19 -1 0 17 -1457 15 -1463 -2
-3 -9 -7 -9 -19 1 -16 13 -185 11 -207 -2 -6 -4 -11 -2 -11 3 0 6 -9 11 -21
11 -15 0 -19 -5 -15 -15 3 -9 0 -15 -9 -15 -8 0 -12 6 -9 14 5 12 -87 14 -631
15 -634 1 -637 1 -632 -19 3 -11 1 -20 -4 -20 -5 0 -9 9 -9 20 0 30 -47 28
-53 -2 l-4 -23 -2 23 c-1 30 -38 30 -44 0 l-4 -23 -2 23 c-1 29 -51 33 -51 3
0 -11 6 -22 12 -25 7 -3 4 -5 -7 -3 -12 1 -21 11 -23 25 -5 30 -22 28 -22 -2
0 -19 -5 -24 -20 -23 -14 1 -20 8 -20 24 0 14 -6 23 -15 23 -9 0 -15 -9 -15
-25 0 -20 -5 -25 -27 -25 -14 0 -23 3 -19 8 4 4 12 7 17 7 5 0 9 3 9 8 0 30
-1 31 -10 17 -6 -10 -10 -11 -10 -2 0 9 -44 12 -185 12 l-185 0 1 -1235z m556
1203 c-3 -8 -6 -5 -6 6 -1 11 2 17 5 13 3 -3 4 -12 1 -19z m-347 8 c0 -2 -7
-7 -16 -10 -8 -3 -12 -2 -9 4 6 10 25 14 25 6z m1100 -5 c0 -5 -6 -12 -12 -14
-10 -4 -9 -8 2 -16 13 -9 12 -11 -6 -11 -16 0 -20 6 -18 23 1 12 3 23 3 25 3
7 31 1 31 -7z m52 -16 c-6 -32 -17 -32 -18 0 -1 14 4 25 11 25 8 0 10 -9 7
-25z m88 18 c0 -5 -11 -8 -25 -8 -14 0 -25 3 -25 8 0 4 11 7 25 7 14 0 25 -3
25 -7z m337 -25 c-3 -7 -5 -2 -5 12 0 14 2 19 5 13 2 -7 2 -19 0 -25z m-103 7
c3 -8 1 -15 -4 -15 -6 0 -10 7 -10 15 0 8 2 15 4 15 2 0 6 -7 10 -15z m423
-37 c-2 -13 -4 -5 -4 17 -1 22 1 32 4 23 2 -10 2 -28 0 -40z m557 36 c3 -8 2
-12 -4 -9 -6 3 -10 10 -10 16 0 14 7 11 14 -7z m1071 -2 c-3 -3 -11 0 -18 7
-9 10 -8 11 6 5 10 -3 15 -9 12 -12z m-1877 -31 c-15 -5 -19 4 -11 24 6 18 7
18 13 -1 4 -10 3 -21 -2 -23z m387 29 c3 -6 -4 -10 -17 -10 -18 0 -20 2 -8 10
19 12 18 12 25 0z m522 -42 c-2 -13 -4 -5 -4 17 -1 22 1 32 4 23 2 -10 2 -28
0 -40z m-2542 32 c-3 -5 -13 -10 -21 -10 -8 0 -14 5 -14 10 0 6 9 10 21 10 11
0 17 -4 14 -10z m1015 -6 c0 -2 -7 -4 -15 -4 -8 0 -15 4 -15 10 0 5 7 7 15 4
8 -4 15 -8 15 -10z m730 -6 c0 -12 -3 -18 -7 -14 -11 10 -12 36 -2 36 5 0 9
-10 9 -22z m650 6 c0 -8 -4 -12 -10 -9 -5 3 -10 10 -10 16 0 5 5 9 10 9 6 0
10 -7 10 -16z m77 -6 c-3 -8 -6 -5 -6 6 -1 11 2 17 5 13 3 -3 4 -12 1 -19z
m-1267 2 c0 -5 -7 -10 -15 -10 -8 0 -15 5 -15 10 0 6 7 10 15 10 8 0 15 -4 15
-10z m1110 2 c0 -4 -9 -8 -20 -9 -11 -1 -20 2 -20 8 0 5 9 9 20 9 11 0 20 -4
20 -8z m699 -45 l-2 -42 -7 40 -7 40 -3 -40 c-3 -40 -3 -40 -7 -7 -3 19 -2 41
1 49 11 27 26 2 25 -40z m601 43 c0 -5 -5 -10 -11 -10 -5 0 -7 5 -4 10 3 6 8
10 11 10 2 0 4 -4 4 -10z m-2166 -6 c9 -3 16 -16 15 -28 0 -20 -1 -20 -8 -2
-4 11 -16 23 -27 27 -10 4 -14 8 -7 8 6 1 18 -2 27 -5z m1063 -31 c-3 -10 -5
-4 -5 12 0 17 2 24 5 18 2 -7 2 -21 0 -30z m60 5 c-3 -7 -5 -2 -5 12 0 14 2
19 5 13 2 -7 2 -19 0 -25z m947 16 c9 -24 7 -64 -4 -64 -5 0 -7 13 -4 28 5 23
1 30 -18 39 -22 11 -22 12 -2 12 12 1 25 -6 28 -15z m-3532 -39 c-2 -19 -8
-35 -13 -35 -5 0 -8 16 -7 35 1 19 6 35 13 35 7 0 9 -13 7 -35z m598 20 c0 -8
-7 -15 -15 -15 -13 0 -14 3 -3 15 16 18 18 18 18 0z m424 0 c3 -8 1 -15 -4
-15 -6 0 -10 7 -10 15 0 8 2 15 4 15 2 0 6 -7 10 -15z m1359 -5 c3 -11 1 -20
-4 -20 -5 0 -9 9 -9 20 0 11 2 20 4 20 2 0 6 -9 9 -20z m1374 -17 c-3 -10 -5
-4 -5 12 0 17 2 24 5 18 2 -7 2 -21 0 -30z m-2663 12 c3 -8 1 -15 -4 -15 -6 0
-10 7 -10 15 0 8 2 15 4 15 2 0 6 -7 10 -15z m2416 5 c0 -5 -5 -10 -11 -10 -5
0 -7 5 -4 10 3 6 8 10 11 10 2 0 4 -4 4 -10z m167 -22 c-3 -8 -6 -5 -6 6 -1
11 2 17 5 13 3 -3 4 -12 1 -19z m-2190 -11 c4 -7 0 -8 -11 -4 -10 4 -22 7 -27
7 -5 0 -9 4 -9 9 0 12 38 2 47 -12z m843 3 c0 -5 -7 -10 -15 -10 -8 0 -15 5
-15 10 0 6 7 10 15 10 8 0 15 -4 15 -10z m286 -20 c0 -11 -4 -20 -8 -20 -10 0
-11 24 -1 33 9 9 9 10 9 -13z m-576 -5 c0 -8 -4 -15 -10 -15 -5 0 -10 5 -10
11 0 5 -4 7 -10 4 -5 -3 -10 -1 -10 4 0 6 9 11 20 11 11 0 20 -7 20 -15z
m-606 -6 c-4 -7 3 -10 22 -7 17 2 29 -2 32 -11 3 -10 0 -12 -12 -8 -10 4 -26
7 -37 7 -10 0 -19 7 -19 15 0 8 5 15 11 15 5 0 7 -5 3 -11z m-1095 -26 c-1
-10 -5 -29 -9 -43 -7 -21 -8 -19 -9 18 -1 23 4 42 9 42 6 0 10 -8 9 -17z m257
-8 c7 -30 -1 -55 -18 -55 -9 0 -9 3 0 12 17 17 15 48 -4 48 -8 0 -12 5 -9 10
11 17 24 11 31 -15z m-294 -15 c-6 -43 -23 -48 -20 -6 2 20 8 36 14 36 6 0 9
-13 6 -30z m70 -5 c-2 -19 -6 -35 -8 -35 -2 0 -4 16 -4 35 0 19 4 35 8 35 4 0
6 -16 4 -35z m33 15 c-4 -12 -1 -28 7 -37 11 -14 11 -15 -2 -11 -17 5 -25 32
-16 54 8 22 18 17 11 -6z m45 -15 c0 -19 -2 -35 -4 -35 -2 0 -6 16 -8 35 -2
19 0 35 4 35 4 0 8 -16 8 -35z m40 0 c0 -19 -4 -35 -10 -35 -5 0 -10 16 -10
35 0 19 5 35 10 35 6 0 10 -16 10 -35z m37 -17 c-2 -13 -4 -5 -4 17 -1 22 1
32 4 23 2 -10 2 -28 0 -40z m1806 45 c-7 -2 -19 -2 -25 0 -7 3 -2 5 12 5 14 0
19 -2 13 -5z m-293 -13 c0 -5 -9 -10 -21 -10 -11 0 -17 5 -14 10 3 6 13 10 21
10 8 0 14 -4 14 -10z m332 -12 c-7 -7 -12 -8 -12 -2 0 6 3 14 7 17 3 4 9 5 12
2 2 -3 -1 -11 -7 -17z m128 7 c0 -8 -4 -15 -10 -15 -5 0 -10 7 -10 15 0 8 5
15 10 15 6 0 10 -7 10 -15z m450 11 c0 -3 -4 -8 -10 -11 -5 -3 -10 -1 -10 4 0
6 5 11 10 11 6 0 10 -2 10 -4z m-2937 -13 c-7 -2 -21 -2 -30 0 -10 3 -4 5 12
5 17 0 24 -2 18 -5z m554 -15 c-3 -8 -6 -5 -6 6 -1 11 2 17 5 13 3 -3 4 -12 1
-19z m2187 16 c9 -3 16 -11 16 -16 0 -6 -6 -5 -15 2 -12 10 -16 9 -21 -4 -3
-9 -4 -23 0 -31 3 -8 1 -15 -4 -15 -6 0 -10 16 -10 35 0 35 5 40 34 29z m856
-49 c-7 -45 -7 -46 -9 -13 -1 32 8 74 14 66 1 -2 -1 -25 -5 -53z m-1713 23
c-3 -8 -6 -5 -6 6 -1 11 2 17 5 13 3 -3 4 -12 1 -19z m443 6 c0 -14 -3 -15
-17 -3 -10 7 -20 15 -22 16 -2 2 5 3 17 3 14 0 22 -6 22 -16z m80 1 c7 -9 11
-17 8 -20 -2 -2 -12 4 -21 15 -9 11 -13 20 -8 20 5 0 14 -7 21 -15z m1120 -9
c0 -14 -4 -28 -10 -31 -5 -3 -10 0 -10 9 0 8 -3 21 -6 30 -4 11 -1 16 10 16
10 0 16 -9 16 -24z m37 -53 c-2 -16 -4 -3 -4 27 0 30 2 43 4 28 2 -16 2 -40 0
-55z m93 52 c0 -14 -2 -25 -4 -25 -2 0 -6 11 -8 25 -3 14 -1 25 3 25 5 0 9
-11 9 -25z m-1460 5 c0 -5 -4 -10 -10 -10 -5 0 -10 5 -10 10 0 6 5 10 10 10 6
0 10 -4 10 -10z m250 -25 c0 -27 -4 -35 -17 -34 -11 0 -13 3 -5 6 6 2 12 18
12 34 0 16 2 29 5 29 3 0 5 -16 5 -35z m110 0 c0 -19 -4 -35 -9 -35 -5 0 -7
14 -4 31 3 23 1 30 -9 27 -7 -3 -13 -17 -13 -31 1 -15 -3 -27 -7 -27 -13 0 -9
58 5 63 29 12 37 6 37 -28z m50 25 c0 -5 -4 -10 -10 -10 -5 0 -10 5 -10 10 0
6 5 10 10 10 6 0 10 -4 10 -10z m60 -6 c0 -8 -4 -12 -10 -9 -5 3 -10 10 -10
16 0 5 5 9 10 9 6 0 10 -7 10 -16z m-289 -8 c5 3 9 0 9 -6 0 -7 -7 -10 -15 -6
-18 7 -20 -5 -3 -22 9 -9 8 -12 -5 -12 -11 0 -17 8 -17 23 0 26 12 45 18 28 2
-6 8 -9 13 -5z m96 -33 c-3 -10 -5 -2 -5 17 0 19 2 27 5 18 2 -10 2 -26 0 -35z
m338 37 c-3 -5 -11 -10 -16 -10 -6 0 -7 5 -4 10 3 6 11 10 16 10 6 0 7 -4 4
-10z m145 -5 c0 -8 -6 -12 -14 -9 -8 3 -17 1 -21 -5 -3 -6 2 -11 12 -12 14 0
15 -2 3 -6 -8 -3 -18 -11 -22 -17 -4 -6 -7 0 -6 14 1 14 6 31 11 38 13 17 37
15 37 -3z m348 -23 c2 -19 -1 -32 -8 -32 -7 0 -9 8 -5 20 4 11 2 20 -4 20 -6
0 -11 7 -11 16 0 29 25 8 28 -24z m-1278 18 c0 -5 -4 -10 -10 -10 -5 0 -10 5
-10 10 0 6 5 10 10 10 6 0 10 -4 10 -10z m730 0 c0 -5 -4 -10 -10 -10 -5 0
-10 5 -10 10 0 6 5 10 10 10 6 0 10 -4 10 -10z m980 0 c0 -5 -2 -10 -4 -10 -3
0 -8 5 -11 10 -3 6 -1 10 4 10 6 0 11 -4 11 -10z m-2008 -19 c-5 -3 -12 -15
-15 -26 -3 -13 -5 -9 -6 12 -1 26 2 31 15 26 9 -3 11 -9 6 -12z m591 12 c-7
-2 -19 -2 -25 0 -7 3 -2 5 12 5 14 0 19 -2 13 -5z m739 -18 c-2 -14 -6 -25 -8
-25 -2 0 -4 11 -4 25 0 14 4 25 9 25 4 0 6 -11 3 -25z m-3059 8 c-7 -2 -19 -2
-25 0 -7 3 -2 5 12 5 14 0 19 -2 13 -5z m2601 -2 c3 -5 -1 -14 -8 -20 -12 -10
-13 -8 -9 8 6 23 9 25 17 12z m392 -15 c0 -15 -5 -21 -10 -16 -5 5 -6 16 -3
24 9 23 15 19 13 -8z m-146 5 c0 -5 -9 -7 -20 -4 -11 3 -20 7 -20 9 0 2 9 4
20 4 11 0 20 -4 20 -9z m177 -23 c-3 -7 -5 -2 -5 12 0 14 2 19 5 13 2 -7 2
-19 0 -25z m633 16 c0 -8 -5 -12 -10 -9 -6 4 -8 11 -5 16 9 14 15 11 15 -7z
m-2001 -16 c-1 -16 -3 -18 -6 -6 -2 9 -12 19 -21 21 -12 3 -10 5 6 6 17 1 22
-4 21 -21z m664 15 c-7 -2 -19 -2 -25 0 -7 3 -2 5 12 5 14 0 19 -2 13 -5z
m347 -3 c0 -5 -4 -10 -10 -10 -5 0 -10 5 -10 10 0 6 5 10 10 10 6 0 10 -4 10
-10z m547 -12 c-3 -8 -6 -5 -6 6 -1 11 2 17 5 13 3 -3 4 -12 1 -19z m305 0
c-7 -7 -12 -8 -12 -2 0 6 3 14 7 17 3 4 9 5 12 2 2 -3 -1 -11 -7 -17z m218 12
c0 -5 -5 -10 -11 -10 -5 0 -7 5 -4 10 3 6 8 10 11 10 2 0 4 -4 4 -10z m-3736
-19 c4 -5 -3 -7 -14 -4 -23 6 -26 13 -6 13 8 0 17 -4 20 -9z m2837 -1 c5 0 9
-4 9 -9 0 -5 -11 -8 -25 -7 -14 0 -25 7 -25 15 0 8 6 11 16 7 9 -3 20 -6 25
-6z m106 -6 c-3 -3 -12 -4 -19 -1 -8 3 -5 6 6 6 11 1 17 -2 13 -5z m-1294 -21
c-7 -2 -19 -2 -25 0 -7 3 -2 5 12 5 14 0 19 -2 13 -5z m717 3 c0 -3 -4 -8 -10
-11 -5 -3 -10 -1 -10 4 0 6 5 11 10 11 6 0 10 -2 10 -4z m-2522 -18 c-7 -19
-38 -22 -38 -4 0 10 9 16 21 16 12 0 19 -5 17 -12z m150 -9 c2 -9 -5 -15 -18
-15 -11 0 -20 5 -20 11 0 28 33 31 38 4z m249 -46 c-3 -10 -5 -2 -5 17 0 19 2
27 5 18 2 -10 2 -26 0 -35z m280 15 c-3 -7 -5 -2 -5 12 0 14 2 19 5 13 2 -7 2
-19 0 -25z m1873 3 c0 -17 -4 -32 -9 -35 -4 -3 -6 6 -3 20 3 16 -1 30 -9 35
-11 7 -10 9 4 9 12 0 17 -8 17 -29z m40 19 c0 -5 -4 -10 -10 -10 -5 0 -10 5
-10 10 0 6 5 10 10 10 6 0 10 -4 10 -10z m-85 -30 c0 -16 -3 -30 -7 -30 -10 0
-10 44 -1 53 3 4 7 7 7 7 1 0 1 -13 1 -30z m-2355 -30 c0 -5 -9 -10 -20 -10
-11 0 -20 5 -20 10 0 6 9 10 20 10 11 0 20 -4 20 -10z m2818 3 c-10 -2 -18
-12 -18 -20 0 -9 -3 -14 -6 -10 -12 11 5 37 23 36 17 -1 17 -2 1 -6z m-1061
-75 c-2 -13 -4 -3 -4 22 0 25 2 35 4 23 2 -13 2 -33 0 -45z m1947 -50 c-3 -21
-10 -40 -15 -44 -11 -6 -12 139 -1 150 11 11 22 -63 16 -106z m46 26 c0 -81
-19 -105 -22 -26 0 26 -2 58 -3 72 -1 31 4 42 16 35 5 -4 9 -40 9 -81z m-1916
70 c17 -7 23 -64 6 -64 -5 0 -7 7 -3 15 3 9 -3 25 -12 35 -19 21 -17 24 9 14z
m1705 -56 c1 -16 -5 -28 -11 -29 -10 0 -10 -2 0 -6 6 -2 12 -15 12 -29 0 -17
-4 -22 -15 -18 -16 7 -21 77 -8 123 6 23 7 23 14 5 4 -10 8 -31 8 -46z m33 2
c-4 -55 -2 -60 17 -60 12 0 21 -4 21 -9 0 -10 -36 -21 -44 -13 -9 8 -7 142 2
142 4 0 5 -27 4 -60z m85 40 c-3 -11 -1 -22 3 -25 5 -3 4 -21 -1 -39 -5 -19
-8 -40 -7 -46 2 -7 -3 -15 -9 -17 -13 -5 -17 18 -16 77 1 62 4 70 19 70 11 0
15 -6 11 -20z m-3652 0 c4 -6 -6 -10 -22 -9 -25 0 -26 1 -8 9 11 5 21 9 22 9
1 1 5 -3 8 -9z m1672 -42 c-3 -7 -5 -2 -5 12 0 14 2 19 5 13 2 -7 2 -19 0 -25z
m713 2 c0 -14 -6 -20 -22 -19 -17 1 -19 2 -5 6 9 2 17 11 17 19 0 8 2 14 5 14
3 0 5 -9 5 -20z m-2383 4 c-3 -3 -12 -4 -19 -1 -8 3 -5 6 6 6 11 1 17 -2 13
-5z m2198 -14 c-3 -5 -12 -10 -18 -10 -7 0 -6 4 3 10 19 12 23 12 15 0z m255
0 c13 -8 13 -10 -2 -10 -11 0 -18 -10 -20 -32 -3 -26 -6 -29 -12 -15 -9 18 0
67 12 67 4 0 14 -5 22 -10z m88 -38 l-1 -37 -4 33 c-3 20 -9 32 -16 29 -7 -2
-11 -16 -9 -30 2 -15 -1 -27 -7 -27 -6 0 -11 15 -11 34 0 25 5 36 18 39 27 6
32 -1 30 -41z m66 31 c-4 -10 -7 -28 -7 -40 1 -13 -5 -23 -13 -23 -9 0 -14 11
-14 33 0 37 6 47 28 47 10 0 12 -5 6 -17z m61 -13 c-3 -5 -13 -10 -21 -10 -8
0 -14 5 -14 10 0 6 9 10 21 10 11 0 17 -4 14 -10z m-2678 -6 c-3 -3 -12 -4
-19 -1 -8 3 -5 6 6 6 11 1 17 -2 13 -5z m2393 -24 c0 -11 -4 -20 -10 -20 -5 0
-10 9 -10 20 0 11 5 20 10 20 6 0 10 -9 10 -20z m-190 0 c0 -5 -4 -10 -10 -10
-5 0 -10 5 -10 10 0 6 5 10 10 10 6 0 10 -4 10 -10z m797 -12 c-3 -8 -6 -5 -6
6 -1 11 2 17 5 13 3 -3 4 -12 1 -19z m-2720 -10 c-3 -8 -6 -5 -6 6 -1 11 2 17
5 13 3 -3 4 -12 1 -19z m153 -2 c0 -14 -4 -28 -10 -31 -6 -4 -10 7 -10 24 0
17 5 31 10 31 6 0 10 -11 10 -24z m340 12 c0 -9 3 -9 12 0 7 7 21 12 33 12 19
-1 19 -1 2 -14 -10 -8 -14 -16 -10 -18 4 -3 2 -3 -5 -1 -8 1 -22 3 -33 3 -10
0 -19 7 -19 15 0 8 5 15 10 15 6 0 10 -5 10 -12z m1556 -1 c11 -11 -19 -8 -36
3 -12 8 -10 9 7 7 12 -2 26 -6 29 -10z m349 3 c3 -5 -3 -10 -14 -10 -12 0 -21
5 -21 10 0 6 6 10 14 10 8 0 18 -4 21 -10z m-2678 -6 c-3 -3 -12 -4 -19 -1 -8
3 -5 6 6 6 11 1 17 -2 13 -5z m182 -23 c0 -10 -2 -11 -6 -3 -2 6 -11 12 -19
12 -9 0 -13 4 -9 10 9 14 35 0 34 -19z m47 22 c-14 -4 -17 -11 -12 -34 3 -16
1 -29 -4 -29 -6 0 -10 16 -10 35 0 30 3 35 23 34 18 -1 19 -2 3 -6z m114 -3
c0 -5 -2 -10 -4 -10 -3 0 -8 5 -11 10 -3 6 -1 10 4 10 6 0 11 -4 11 -10z m17
-22 c-3 -7 -5 -2 -5 12 0 14 2 19 5 13 2 -7 2 -19 0 -25z m33 12 c0 -11 -2
-20 -4 -20 -2 0 -6 9 -9 20 -3 11 -1 20 4 20 5 0 9 -9 9 -20z m119 -7 c0 -16
-3 -22 -6 -13 -3 8 -10 21 -16 28 -7 8 -5 12 7 12 11 0 16 -8 15 -27z m50 20
c0 -5 -4 -17 -9 -28 -8 -18 -9 -17 -9 8 -1 15 4 27 9 27 6 0 10 -3 9 -7z
m-102 -25 c-3 -8 -6 -5 -6 6 -1 11 2 17 5 13 3 -3 4 -12 1 -19z m-457 -14 c0
-2 -7 -4 -15 -4 -8 0 -15 4 -15 10 0 5 7 7 15 4 8 -4 15 -8 15 -10z m277 -16
c-3 -7 -5 -2 -5 12 0 14 2 19 5 13 2 -7 2 -19 0 -25z m40 10 c-3 -8 -6 -5 -6
6 -1 11 2 17 5 13 3 -3 4 -12 1 -19z m452 -13 c-14 -51 -5 -73 29 -67 18 3 24
1 17 -5 -14 -14 -79 -23 -94 -13 -7 4 -13 28 -13 55 -1 50 10 65 49 65 20 0
21 -3 12 -35z m-379 5 c0 -5 -4 -10 -10 -10 -5 0 -10 5 -10 10 0 6 5 10 10 10
6 0 10 -4 10 -10z m1930 0 c0 -5 -4 -10 -10 -10 -5 0 -10 -12 -11 -27 0 -16
-3 -22 -6 -15 -7 18 5 62 17 62 6 0 10 -4 10 -10z m-2150 -10 c0 -5 -8 -10
-17 -10 -15 0 -16 2 -3 10 19 12 20 12 20 0z m2202 -20 c-2 -17 -9 -33 -15
-37 -7 -4 -8 0 -4 11 4 10 7 26 7 37 0 10 4 19 8 19 5 0 7 -14 4 -30z m55 -2
c-3 -7 -5 -2 -5 12 0 14 2 19 5 13 2 -7 2 -19 0 -25z m-2592 12 c3 -5 1 -10
-4 -10 -6 0 -11 5 -11 10 0 6 2 10 4 10 3 0 8 -4 11 -10z m162 -15 c0 -8 -6
-15 -14 -15 -7 0 -13 7 -13 15 0 8 6 15 13 15 8 0 14 -7 14 -15z m843 -5 c0
-17 -2 -19 -14 -8 -10 9 -11 15 -2 20 16 11 16 10 16 -12z m1482 -12 c-8 -8
-9 -4 -5 13 4 13 8 18 11 10 2 -7 -1 -18 -6 -23z m533 12 c3 -6 -4 -10 -17
-10 -13 0 -29 -5 -36 -12 -9 -9 -12 -9 -12 0 0 7 10 17 23 22 29 12 35 12 42
0z m-3015 -45 c0 -15 -6 -25 -14 -25 -7 0 -16 11 -18 25 -4 19 -1 25 13 25 14
0 19 -7 19 -25z m160 0 c0 -8 -7 -15 -15 -15 -8 0 -15 7 -15 15 0 8 7 15 15
15 8 0 15 -7 15 -15z m2853 2 c4 -10 -4 -14 -24 -14 -35 0 -37 5 -6 17 12 5
23 9 23 9 1 1 4 -5 7 -12z m814 -69 c-2 -18 -4 -6 -4 27 0 33 2 48 4 33 2 -15
2 -42 0 -60z m61 59 c2 -12 -1 -15 -12 -11 -19 7 -22 38 -3 32 6 -3 13 -12 15
-21z m-200 -39 l-1 -53 -6 45 c-6 43 -5 60 5 60 2 0 3 -24 2 -52z m19 20 c-3
-7 -5 -2 -5 12 0 14 2 19 5 13 2 -7 2 -19 0 -25z m31 -18 c-3 -37 -28 -55 -28
-21 0 12 5 21 11 21 7 0 9 10 4 28 -5 20 -4 24 5 16 6 -6 10 -26 8 -44z m22
-1 c0 -27 -3 -48 -8 -45 -7 4 -4 96 4 96 2 0 4 -23 4 -51z m39 -1 c-1 -45 -2
-49 -9 -23 -11 44 -11 75 0 75 6 0 9 -23 9 -52z m-3539 32 c0 -5 -4 -10 -10
-10 -5 0 -10 5 -10 10 0 6 5 10 10 10 6 0 10 -4 10 -10z m2225 -1 c9 -14 -3
-59 -16 -59 -6 0 -6 7 1 21 15 28 4 38 -15 13 -17 -22 -20 -12 -5 17 12 21 25
25 35 8z m79 -39 c-5 -5 -10 3 -11 18 -1 22 0 24 9 8 6 -10 6 -22 2 -26z
m-2404 20 c0 -5 -4 -10 -10 -10 -5 0 -10 5 -10 10 0 6 5 10 10 10 6 0 10 -4
10 -10z m185 -1 c4 -6 5 -12 2 -15 -7 -7 -37 7 -37 17 0 13 27 11 35 -2z m-85
-9 c0 -5 -5 -10 -11 -10 -5 0 -7 5 -4 10 3 6 8 10 11 10 2 0 4 -4 4 -10z
m2757 -6 c2 -7 -9 -9 -29 -6 -28 4 -30 6 -13 13 24 9 37 7 42 -7z m-2599 -28
c2 -16 -1 -33 -6 -38 -6 -6 -11 5 -14 31 -4 46 15 52 20 7z m34 -10 c-6 -48
-12 -46 -12 5 0 22 4 38 8 35 4 -3 6 -21 4 -40z m108 11 c0 -19 -3 -36 -6 -40
-8 -8 -34 3 -34 15 0 5 5 6 10 3 6 -4 10 7 10 24 0 17 5 31 10 31 6 0 10 -15
10 -33z m80 23 c0 -5 -4 -10 -10 -10 -5 0 -10 5 -10 10 0 6 5 10 10 10 6 0 10
-4 10 -10z m40 0 c0 -5 -2 -10 -4 -10 -3 0 -8 5 -11 10 -3 6 -1 10 4 10 6 0
11 -4 11 -10z m51 -9 c-6 -10 -8 -36 -6 -57 4 -32 3 -34 -4 -14 -15 43 -13 90
4 90 12 0 13 -4 6 -19z m-571 -1 c0 -5 -4 -10 -9 -10 -6 0 -13 5 -16 10 -3 6
1 10 9 10 9 0 16 -4 16 -10z m217 -47 c-4 -17 -4 -17 -12 0 -4 9 -4 25 0 35 8
16 8 16 12 0 3 -10 3 -26 0 -35z m-377 33 c0 -2 -7 -6 -15 -10 -8 -3 -15 -1
-15 4 0 6 7 10 15 10 8 0 15 -2 15 -4z m330 -22 c0 -8 -4 -12 -10 -9 -5 3 -10
13 -10 21 0 8 5 12 10 9 6 -3 10 -13 10 -21z m267 -6 c-3 -7 -5 -2 -5 12 0 14
2 19 5 13 2 -7 2 -19 0 -25z m36 7 c-7 -21 -13 -19 -13 6 0 11 4 18 10 14 5
-3 7 -12 3 -20z m44 -12 c-3 -10 -5 -4 -5 12 0 17 2 24 5 18 2 -7 2 -21 0 -30z
m-517 17 c0 -5 -4 -10 -9 -10 -6 0 -13 5 -16 10 -3 6 1 10 9 10 9 0 16 -4 16
-10z m105 0 c3 -5 -1 -10 -10 -10 -9 0 -13 5 -10 10 3 6 8 10 10 10 2 0 7 -4
10 -10z m2754 6 c-11 -9 -69 -15 -64 -6 3 6 20 10 37 10 17 0 29 -2 27 -4z
m-1901 -50 c6 -13 20 -27 30 -30 18 -6 29 -29 38 -76 8 -44 11 -176 4 -185
-10 -12 -13 -71 -7 -132 4 -41 -4 -55 -18 -32 -4 6 -13 8 -21 5 -9 -3 -14 1
-14 12 0 10 -7 27 -15 38 -14 18 -15 16 -13 -26 2 -54 -6 -70 -33 -70 -11 0
-17 4 -14 10 3 5 -3 17 -15 27 -23 20 -27 35 -6 27 14 -5 26 23 26 64 0 12 5
22 10 22 6 0 10 5 10 10 0 16 -18 12 -40 -10 -11 -11 -24 -20 -30 -20 -5 0 -1
9 11 21 11 11 18 23 15 27 -4 3 -12 0 -18 -6 -7 -7 -21 -12 -32 -11 -20 0 -20
1 2 11 12 6 22 17 22 25 0 7 5 13 11 13 5 0 8 4 5 9 -3 4 -17 6 -31 3 -22 -4
-25 -1 -25 22 0 20 5 26 21 26 11 0 18 4 14 10 -4 6 -15 6 -30 0 -23 -9 -25
-8 -19 15 6 23 3 25 -25 25 -35 0 -36 3 -20 65 l11 43 54 -5 c46 -5 54 -3 54
11 0 10 8 16 24 16 54 0 71 23 40 54 -12 13 -13 16 -1 16 7 0 19 -11 25 -24z
m1897 14 c3 -5 -1 -10 -10 -10 -9 0 -13 5 -10 10 3 6 8 10 10 10 2 0 7 -4 10
-10z m-541 -25 c3 -8 1 -15 -4 -15 -6 0 -10 7 -10 15 0 8 2 15 4 15 2 0 6 -7
10 -15z m546 -25 c0 -5 -12 -10 -27 -9 -25 0 -26 1 -8 9 27 12 35 12 35 0z
m-2670 -16 c0 -8 -7 -14 -15 -14 -8 0 -15 5 -15 11 0 5 -5 7 -12 3 -6 -4 -8
-3 -5 2 9 16 47 14 47 -2z m337 -46 c-2 -13 -4 -3 -4 22 0 25 2 35 4 23 2 -13
2 -33 0 -45z m1840 40 c-3 -8 -6 -5 -6 6 -1 11 2 17 5 13 3 -3 4 -12 1 -19z
m124 -5 c-8 -15 -10 -15 -11 -2 0 17 10 32 18 25 2 -3 -1 -13 -7 -23z m-2671
13 c0 -3 -4 -8 -10 -11 -5 -3 -10 -1 -10 4 0 6 5 11 10 11 6 0 10 -2 10 -4z
m1997 -28 c-3 -7 -5 -2 -5 12 0 14 2 19 5 13 2 -7 2 -19 0 -25z m113 -8 c0
-16 -2 -30 -4 -30 -2 0 -6 14 -8 30 -3 17 -1 30 4 30 4 0 8 -13 8 -30z m37 -7
c-3 -10 -5 -4 -5 12 0 17 2 24 5 18 2 -7 2 -21 0 -30z m141 12 c-3 -3 -9 2
-12 12 -6 14 -5 15 5 6 7 -7 10 -15 7 -18z m122 4 c0 -6 -4 -7 -10 -4 -5 3
-10 11 -10 16 0 6 5 7 10 4 6 -3 10 -11 10 -16z m75 12 c3 -5 1 -12 -5 -16 -5
-3 -10 1 -10 9 0 18 6 21 15 7z m162 -13 c-3 -8 -6 -5 -6 6 -1 11 2 17 5 13 3
-3 4 -12 1 -19z m393 2 c0 -11 -7 -20 -15 -20 -15 0 -21 21 -8 33 12 13 23 7
23 -13z m-983 -22 c-3 -7 -5 -2 -5 12 0 14 2 19 5 13 2 -7 2 -19 0 -25z m70 0
c-3 -7 -5 -2 -5 12 0 14 2 19 5 13 2 -7 2 -19 0 -25z m871 14 c2 -7 -3 -12
-12 -12 -9 0 -16 7 -16 16 0 17 22 14 28 -4z m-2638 -12 c0 -5 -7 -7 -15 -4
-11 4 -15 -1 -15 -17 0 -16 -3 -20 -10 -13 -15 15 -1 44 21 44 10 0 19 -4 19
-10z m-340 -30 c0 -5 -4 -10 -10 -10 -5 0 -10 5 -10 10 0 6 5 10 10 10 6 0 10
-4 10 -10z m342 -12 c-7 -7 -12 -8 -12 -2 0 14 12 26 19 19 2 -3 -1 -11 -7
-17z m2653 12 c4 -6 -7 -10 -24 -10 -17 0 -31 5 -31 10 0 6 11 10 24 10 14 0
28 -4 31 -10z m272 -22 c-3 -7 -5 -2 -5 12 0 14 2 19 5 13 2 -7 2 -19 0 -25z
m50 10 c-3 -8 -6 -5 -6 6 -1 11 2 17 5 13 3 -3 4 -12 1 -19z m60 -30 c-2 -13
-4 -5 -4 17 -1 22 1 32 4 23 2 -10 2 -28 0 -40z m-30 10 c-3 -7 -5 -2 -5 12 0
14 2 19 5 13 2 -7 2 -19 0 -25z m-777 7 c0 -9 -9 -15 -24 -15 -30 0 -43 17
-19 23 34 9 43 7 43 -8z m-1723 -17 c-3 -8 -6 -5 -6 6 -1 11 2 17 5 13 3 -3 4
-12 1 -19z m3083 -11 c0 -40 -17 -52 -24 -17 -3 18 -3 36 0 41 9 15 24 0 24
-24z m-1766 1 c3 -13 2 -26 -3 -31 -5 -5 -11 5 -13 22 -5 36 7 42 16 9z m1449
3 c2 -10 1 -25 -4 -32 -6 -10 -9 -5 -10 16 l-1 30 -8 -30 c-4 -16 -8 -22 -9
-13 0 9 -4 23 -7 32 -4 11 0 16 14 16 11 0 22 -8 25 -19z m39 -11 c-2 -16 -8
-30 -13 -30 -5 0 -9 14 -9 30 0 18 5 30 13 30 9 0 12 -10 9 -30z m68 0 c0 -23
-4 -30 -20 -30 -16 0 -20 7 -20 30 0 23 4 30 20 30 16 0 20 -7 20 -30z m27
-22 c-2 -13 -4 -5 -4 17 -1 22 1 32 4 23 2 -10 2 -28 0 -40z m52 20 c-2 -30
-2 -30 -6 -6 -2 15 -12 29 -21 31 -12 3 -10 5 6 6 19 1 22 -4 21 -31z m70 0
l-2 -33 -5 30 -5 30 -7 -30 -8 -30 -1 33 c-1 22 4 32 14 32 11 0 15 -10 14
-32z m-3689 2 c0 -5 -4 -10 -9 -10 -6 0 -13 5 -16 10 -3 6 1 10 9 10 9 0 16
-4 16 -10z m3327 -12 c-3 -8 -6 -5 -6 6 -1 11 2 17 5 13 3 -3 4 -12 1 -19z
m-1400 -10 c-3 -8 -6 -5 -6 6 -1 11 2 17 5 13 3 -3 4 -12 1 -19z m461 5 c-2
-11 -14 -19 -31 -21 -22 -3 -27 1 -27 17 0 17 6 21 31 21 24 0 30 -4 27 -17z
m428 7 c8 0 14 -4 14 -8 0 -5 -13 -7 -30 -4 -16 2 -30 9 -30 14 0 6 7 7 16 4
9 -3 22 -6 30 -6z m671 -12 c-3 -8 -6 -5 -6 6 -1 11 2 17 5 13 3 -3 4 -12 1
-19z m110 0 c-3 -8 -6 -5 -6 6 -1 11 2 17 5 13 3 -3 4 -12 1 -19z m53 1 c0 -5
-4 -9 -10 -9 -5 0 -10 7 -10 16 0 8 5 12 10 9 6 -3 10 -10 10 -16z m-265 1 c3
-5 1 -10 -4 -10 -6 0 -11 5 -11 10 0 6 2 10 4 10 3 0 8 -4 11 -10z m330 1 c3
-5 1 -12 -5 -16 -5 -3 -10 1 -10 9 0 18 6 21 15 7z m-410 -11 c3 -5 1 -10 -4
-10 -6 0 -11 5 -11 10 0 6 2 10 4 10 3 0 8 -4 11 -10z m-1300 -28 c-3 -3 -11
0 -18 7 -9 10 -8 11 6 5 10 -3 15 -9 12 -12z m-2052 -7 c-3 -9 -8 -14 -10 -11
-3 3 -2 9 2 15 9 16 15 13 8 -4z m2875 -5 c3 -9 -1 -11 -12 -7 -10 4 -22 7
-27 7 -5 0 -9 4 -9 8 0 14 43 7 48 -8z m909 -27 c-3 -10 -5 -2 -5 17 0 19 2
27 5 18 2 -10 2 -26 0 -35z m-1349 20 c2 -9 -7 -13 -27 -13 -21 0 -31 5 -31
16 0 19 51 16 58 -3z m-2235 -19 c3 -4 2 -15 -3 -25 -7 -12 -6 -19 3 -22 9 -3
9 -7 0 -17 -18 -20 -29 -4 -25 34 4 35 11 43 25 30z m207 -36 c0 -38 -5 -34
-13 10 -4 21 -3 31 3 27 6 -3 10 -20 10 -37z m2456 32 c8 0 14 -5 14 -10 0 -6
-13 -9 -30 -8 -18 1 -30 8 -30 16 0 9 6 12 16 8 9 -3 22 -6 30 -6z m-2579 -62
c-2 -13 -4 -3 -4 22 0 25 2 35 4 23 2 -13 2 -33 0 -45z m40 15 c-3 -10 -5 -2
-5 17 0 19 2 27 5 18 2 -10 2 -26 0 -35z m-75 7 c3 -17 1 -33 -4 -36 -4 -3 -8
11 -8 30 0 44 6 47 12 6z m185 -7 c-3 -10 -5 -4 -5 12 0 17 2 24 5 18 2 -7 2
-21 0 -30z m1994 12 c0 -5 -12 -11 -26 -13 -18 -2 -25 1 -25 13 0 12 7 15 25
13 14 -2 26 -7 26 -13z m-2561 1 c0 -3 -4 -8 -10 -11 -5 -3 -10 -1 -10 4 0 6
5 11 10 11 6 0 10 -2 10 -4z m2968 -24 c2 -7 -3 -12 -12 -12 -9 0 -16 7 -16
16 0 17 22 14 28 -4z m551 -50 c1 -7 -3 -10 -9 -7 -5 3 -10 21 -9 38 1 31 1
31 9 7 4 -14 8 -31 9 -38z m88 36 c-3 -8 -6 -5 -6 6 -1 11 2 17 5 13 3 -3 4
-12 1 -19z m63 -14 c0 -21 -4 -33 -10 -29 -5 3 -10 19 -10 36 0 16 5 29 10 29
6 0 10 -16 10 -36z m39 -16 c1 -10 -3 -18 -9 -18 -5 0 -10 17 -9 38 0 30 2 33
9 17 5 -11 9 -28 9 -37z m58 30 c-3 -8 -6 -5 -6 6 -1 11 2 17 5 13 3 -3 4 -12
1 -19z m93 12 c0 -5 -4 -10 -10 -10 -5 0 -10 5 -10 10 0 6 5 10 10 10 6 0 10
-4 10 -10z m66 -6 c-3 -9 -6 -22 -6 -30 0 -9 -4 -13 -9 -10 -15 10 -10 56 6
56 10 0 13 -6 9 -16z m-186 -29 c0 -19 -4 -35 -10 -35 -5 0 -10 16 -10 35 0
19 5 35 10 35 6 0 10 -16 10 -35z m69 28 c0 -5 -4 -17 -9 -28 -8 -18 -9 -17
-9 8 -1 15 4 27 9 27 6 0 10 -3 9 -7z m-1249 -20 c0 -5 -11 -9 -25 -9 -14 -1
-25 2 -25 7 0 5 11 9 25 9 14 0 25 -3 25 -7z m1027 -25 c-3 -7 -5 -2 -5 12 0
14 2 19 5 13 2 -7 2 -19 0 -25z m250 0 c-3 -7 -5 -2 -5 12 0 14 2 19 5 13 2
-7 2 -19 0 -25z m-2801 -5 c-10 -10 -19 5 -10 18 6 11 8 11 12 0 2 -7 1 -15
-2 -18z m2511 5 c-3 -8 -6 -5 -6 6 -1 11 2 17 5 13 3 -3 4 -12 1 -19z m233
-11 c0 -5 -4 -5 -10 -2 -5 3 -10 14 -10 23 0 15 2 15 10 2 5 -8 10 -19 10 -23z
m-3446 14 c3 -5 -1 -11 -9 -15 -9 -3 -15 0 -15 9 0 16 16 20 24 6z m2236 -18
c0 -14 -20 -39 -20 -25 0 6 -7 12 -15 12 -8 0 -15 5 -15 10 0 6 11 10 25 10
14 0 25 -3 25 -7z m449 -9 c12 -11 -8 -10 -39 2 l-35 14 35 -6 c19 -4 37 -8
39 -10z m-2479 -58 c-7 -7 -10 4 -9 30 1 39 1 39 10 9 5 -18 5 -33 -1 -39z
m-158 19 c-2 -15 -8 -23 -13 -18 -10 10 0 55 11 48 4 -2 5 -16 2 -30z m38 5
c0 -16 -2 -30 -4 -30 -2 0 -6 14 -8 30 -3 17 -1 30 4 30 4 0 8 -13 8 -30z m37
-17 c-3 -10 -5 -2 -5 17 0 19 2 27 5 18 2 -10 2 -26 0 -35z m52 35 c0 -7 -4
-22 -9 -33 -7 -17 -9 -15 -9 13 -1 17 4 32 9 32 6 0 10 -6 9 -12z m81 -8 c0
-17 -2 -19 -14 -8 -14 13 -12 28 5 28 5 0 9 -9 9 -20z m-430 -20 c0 -20 -5
-30 -15 -30 -18 0 -20 26 -2 45 17 19 17 19 17 -15z m175 5 c0 -14 -3 -25 -7
-25 -5 0 -8 11 -8 25 0 14 3 25 8 25 4 0 7 -11 7 -25z m2635 -25 c0 -5 -4 -10
-10 -10 -5 0 -10 5 -10 10 0 6 5 10 10 10 6 0 10 -4 10 -10z m-2882 -34 c2
-10 -2 -23 -9 -30 -9 -8 -11 -7 -6 6 4 10 -1 25 -10 34 -15 15 -15 16 3 12 10
-2 20 -12 22 -22z m176 9 c-4 -8 -8 -15 -10 -15 -2 0 -4 7 -4 15 0 8 4 15 10
15 5 0 7 -7 4 -15z m-225 -22 c0 -25 -1 -25 -8 -8 -5 11 -7 23 -4 28 8 14 13
7 12 -20z m3651 6 c0 -18 -2 -19 -15 -5 -8 8 -15 17 -15 20 0 3 7 6 15 6 9 0
15 -9 15 -21z m-174 -37 c-12 -11 -18 7 -10 30 l8 23 4 -23 c2 -13 1 -26 -2
-30z m-2448 -13 l37 -1 -31 -7 c-17 -4 -36 -11 -42 -15 -8 -5 -12 3 -11 26 1
18 3 25 6 16 3 -13 15 -18 41 -19z m-1068 17 c0 -3 -4 -8 -10 -11 -5 -3 -10
-1 -10 4 0 6 5 11 10 11 6 0 10 -2 10 -4z m3010 -6 c0 -5 4 -9 9 -7 5 1 10 -2
11 -8 3 -20 -28 -16 -33 5 -3 11 -1 20 4 20 5 0 9 -4 9 -10z m670 0 c0 -5 -2
-10 -4 -10 -3 0 -8 5 -11 10 -3 6 -1 10 4 10 6 0 11 -4 11 -10z m-1140 -15
c-7 -8 -10 -24 -7 -35 3 -11 1 -20 -4 -20 -10 0 -12 53 -2 63 13 14 25 7 13
-8z m40 -11 c0 -8 -8 -14 -17 -14 -14 0 -15 2 -4 9 8 5 10 14 6 21 -5 9 -4 11
3 6 7 -4 12 -14 12 -22z m617 20 c-3 -3 -12 -4 -19 -1 -8 3 -5 6 6 6 11 1 17
-2 13 -5z m63 -4 c0 -5 -4 -10 -10 -10 -5 0 -10 5 -10 10 0 6 5 10 10 10 6 0
10 -4 10 -10z m-637 -51 c-6 -6 -7 3 -4 23 4 28 6 29 9 9 2 -13 0 -27 -5 -32z
m111 36 c3 -8 1 -15 -4 -15 -6 0 -10 7 -10 15 0 8 2 15 4 15 2 0 6 -7 10 -15z
m-2724 -5 c0 -5 -2 -10 -4 -10 -3 0 -8 5 -11 10 -3 6 -1 10 4 10 6 0 11 -4 11
-10z m147 -22 c-3 -7 -5 -2 -5 12 0 14 2 19 5 13 2 -7 2 -19 0 -25z m2440 0
c-3 -7 -5 -2 -5 12 0 14 2 19 5 13 2 -7 2 -19 0 -25z m1088 22 c3 -5 -1 -10
-10 -10 -9 0 -13 5 -10 10 3 6 8 10 10 10 2 0 7 -4 10 -10z m-1312 -7 c-7 -2
-21 -2 -30 0 -10 3 -4 5 12 5 17 0 24 -2 18 -5z m812 -2 c3 -5 1 -12 -5 -16
-5 -3 -10 1 -10 9 0 18 6 21 15 7z m-194 -11 c5 0 9 -4 9 -9 0 -4 -11 -6 -25
-3 -14 2 -25 9 -25 14 0 6 7 7 16 4 9 -3 20 -6 25 -6z m-1886 -31 c0 -22 -4
-24 -47 -24 -48 -1 -55 5 -42 38 4 11 18 14 47 13 37 -2 42 -5 42 -27z m1470
21 c-3 -5 -12 -10 -18 -10 -7 0 -6 4 3 10 19 12 23 12 15 0z m1109 -16 c3 -8
2 -12 -4 -9 -6 3 -10 10 -10 16 0 14 7 11 14 -7z m-1144 -43 c0 -12 -20 -25
-27 -18 -7 7 6 27 18 27 5 0 9 -4 9 -9z m1145 -21 c1 -11 -2 -20 -7 -20 -4 0
-8 12 -8 27 0 30 13 24 15 -7z m-692 13 c-7 -2 -19 -2 -25 0 -7 3 -2 5 12 5
14 0 19 -2 13 -5z m-2843 -7 c0 -2 -7 -6 -15 -10 -8 -3 -15 -1 -15 4 0 6 7 10
15 10 8 0 15 -2 15 -4z m3623 -16 c-3 -11 -7 -20 -9 -20 -2 0 -4 9 -4 20 0 11
4 20 9 20 5 0 7 -9 4 -20z m-1213 -24 c0 -8 -10 -13 -25 -13 -41 0 -28 19 18
26 4 0 7 -5 7 -13z m-2410 -30 c0 -15 -18 -31 -26 -23 -7 7 7 37 17 37 5 0 9
-6 9 -14z m3535 4 c3 -5 1 -10 -4 -10 -6 0 -11 5 -11 10 0 6 2 10 4 10 3 0 8
-4 11 -10z m-1140 -20 c-3 -5 -13 -10 -21 -10 -8 0 -14 5 -14 10 0 6 9 10 21
10 11 0 17 -4 14 -10z m440 -20 c-3 -5 -11 -10 -16 -10 -6 0 -7 5 -4 10 3 6
11 10 16 10 6 0 7 -4 4 -10z m119 -28 c-4 -12 -14 -22 -23 -21 -10 0 -11 2 -3
6 6 2 12 16 12 31 0 17 3 23 10 16 5 -5 7 -19 4 -32z m-31 13 c-3 -9 -8 -14
-10 -11 -3 3 -2 9 2 15 9 16 15 13 8 -4z m144 -7 c-3 -8 -6 -5 -6 6 -1 11 2
17 5 13 3 -3 4 -12 1 -19z m90 -10 c-3 -7 -5 -2 -5 12 0 14 2 19 5 13 2 -7 2
-19 0 -25z m143 -33 c0 -36 -3 -65 -7 -65 -5 0 -8 24 -7 53 1 62 2 77 9 77 3
0 5 -29 5 -65z m-293 23 c-3 -7 -5 -2 -5 12 0 14 2 19 5 13 2 -7 2 -19 0 -25z
m-612 12 c-3 -5 -13 -10 -21 -10 -8 0 -14 5 -14 10 0 6 9 10 21 10 11 0 17 -4
14 -10z m-2477 -28 c-10 -2 -18 -10 -18 -19 0 -13 3 -13 15 -3 12 10 15 10 15
-4 0 -9 -8 -16 -20 -16 -14 0 -20 7 -20 23 0 30 8 37 28 29 15 -6 15 -7 0 -10z
m59 -24 c-3 -8 -6 -5 -6 6 -1 11 2 17 5 13 3 -3 4 -12 1 -19z m2433 12 c0 -5
-12 -10 -27 -9 -25 0 -26 1 -8 9 27 12 35 12 35 0z m-2590 -15 c0 -8 -4 -15
-10 -15 -5 0 -10 7 -10 15 0 8 5 15 10 15 6 0 10 -7 10 -15z m1135 5 c3 -5 -1
-10 -9 -10 -9 0 -16 5 -16 10 0 6 4 10 9 10 6 0 13 -4 16 -10z m-768 -66 c-3
-36 -9 -69 -13 -73 -3 -3 -5 15 -3 42 3 37 1 47 -11 48 -10 0 -11 2 -2 6 17 7
15 33 -3 33 -8 0 -15 -7 -15 -17 0 -9 -3 -14 -6 -10 -14 13 7 37 32 37 l26 0
-5 -66z m105 -14 c-2 -33 -7 -60 -10 -60 -7 0 -4 84 3 108 8 24 10 11 7 -48z
m498 13 c0 -19 -16 -41 -24 -32 -2 2 -1 21 2 43 5 40 22 32 22 -11z m-473 -25
c-2 -13 -4 -3 -4 22 0 25 2 35 4 23 2 -13 2 -33 0 -45z m2203 37 c0 -8 -7 -11
-19 -8 -16 4 -17 8 -8 18 14 15 27 10 27 -10z m-2250 -12 c0 -13 -3 -13 -15
-3 -8 7 -12 16 -9 21 8 13 24 1 24 -18z m147 -40 c-2 -16 -4 -5 -4 22 0 28 2
40 4 28 2 -13 2 -35 0 -50z m2333 57 c0 -5 -4 -10 -10 -10 -5 0 -10 5 -10 10
0 6 5 10 10 10 6 0 10 -4 10 -10z m-2350 -9 c0 -4 -11 -6 -25 -3 -14 2 -25 6
-25 8 0 2 11 4 25 4 14 0 25 -4 25 -9z m-175 -41 c0 -40 -8 -52 -18 -27 -6 17
3 67 12 67 4 0 7 -18 6 -40z m112 18 c-3 -8 -6 -5 -6 6 -1 11 2 17 5 13 3 -3
4 -12 1 -19z m2073 12 c0 -5 -10 -10 -22 -9 -22 0 -22 1 -3 9 11 5 21 9 23 9
1 1 2 -3 2 -9z m149 -27 c0 -31 -2 -34 -9 -18 -12 28 -12 55 0 55 6 0 10 -17
9 -37z m58 31 c-3 -3 -12 -4 -19 -1 -8 3 -5 6 6 6 11 1 17 -2 13 -5z m96 -1
c-7 -2 -13 -20 -13 -39 0 -47 -17 -43 -22 6 -3 37 -2 40 22 39 14 0 19 -3 13
-6z m-2783 -43 c0 -20 -5 -30 -15 -30 -15 0 -21 40 -8 53 14 15 23 6 23 -23z
m216 -18 c-12 -11 -18 7 -10 30 l8 23 4 -23 c2 -13 1 -26 -2 -30z m1114 38 c0
-5 -7 -10 -16 -10 -8 0 -12 5 -9 10 3 6 10 10 16 10 5 0 9 -4 9 -10z m1250 3
c-8 -3 -18 -11 -22 -17 -5 -7 -8 -4 -8 7 0 11 7 17 23 16 15 0 17 -2 7 -6z
m83 -13 c3 -11 1 -20 -4 -20 -5 0 -9 9 -9 20 0 11 2 20 4 20 2 0 6 -9 9 -20z
m152 10 c3 -5 1 -10 -4 -10 -6 0 -11 5 -11 10 0 6 2 10 4 10 3 0 8 -4 11 -10z
m825 0 c0 -5 -7 -7 -15 -4 -8 4 -15 8 -15 10 0 2 7 4 15 4 8 0 15 -4 15 -10z
m-3560 -10 c0 -5 -6 -7 -14 -4 -9 4 -16 -3 -19 -18 -4 -21 -4 -20 -6 5 -1 21
4 27 19 27 11 0 20 -4 20 -10z m27 -27 c-3 -10 -5 -4 -5 12 0 17 2 24 5 18 2
-7 2 -21 0 -30z m219 0 c-11 -11 -19 6 -11 24 8 17 8 17 12 0 3 -10 2 -21 -1
-24z m903 -28 c-1 -35 2 -69 6 -75 4 -6 -4 -10 -18 -10 -23 0 -24 2 -19 48 3
26 9 50 15 53 5 4 5 9 -2 13 -16 10 -13 36 4 36 11 0 14 -14 14 -65z m1081 56
c0 -19 -20 -22 -36 -7 -14 15 -13 16 10 16 14 0 26 -4 26 -9z m-1903 -33 c-3
-7 -5 -2 -5 12 0 14 2 19 5 13 2 -7 2 -19 0 -25z m2178 13 c-3 -6 -11 -11 -16
-11 -5 0 -4 6 3 14 14 16 24 13 13 -3z m-2448 -13 c-3 -8 -6 -5 -6 6 -1 11 2
17 5 13 3 -3 4 -12 1 -19z m317 -7 c-2 -3 -12 3 -22 13 -16 17 -16 18 5 5 12
-7 20 -15 17 -18z m386 19 c0 -5 -2 -10 -4 -10 -3 0 -8 5 -11 10 -3 6 -1 10 4
10 6 0 11 -4 11 -10z m1640 0 c0 -5 -9 -10 -20 -10 -11 0 -20 5 -20 10 0 6 9
10 20 10 11 0 20 -4 20 -10z m1230 0 c0 -5 -5 -10 -11 -10 -5 0 -7 5 -4 10 3
6 8 10 11 10 2 0 4 -4 4 -10z m-3325 -10 c3 -5 1 -10 -4 -10 -6 0 -11 5 -11
10 0 6 2 10 4 10 3 0 8 -4 11 -10z m2442 4 c-3 -3 -12 -4 -19 -1 -8 3 -5 6 6
6 11 1 17 -2 13 -5z m-572 -14 c3 -5 1 -10 -4 -10 -6 0 -11 5 -11 10 0 6 2 10
4 10 3 0 8 -4 11 -10z m1565 0 c0 -5 -4 -10 -10 -10 -5 0 -10 -4 -10 -10 0 -5
7 -6 17 -3 11 4 14 3 9 -5 -8 -14 -46 -16 -46 -3 0 21 13 41 26 41 8 0 14 -4
14 -10z m-1340 -51 c0 -5 -5 -7 -11 -3 -6 3 -15 0 -20 -7 -4 -7 -11 -10 -14
-7 -11 11 5 28 26 28 10 0 19 -5 19 -11z m-70 -19 c0 -5 -4 -10 -9 -10 -6 0
-13 5 -16 10 -3 6 1 10 9 10 9 0 16 -4 16 -10z m1100 -10 c0 -5 -5 -10 -11
-10 -5 0 -7 5 -4 10 3 6 8 10 11 10 2 0 4 -4 4 -10z m-1030 -10 c0 -5 -10 -10
-22 -10 -19 0 -20 2 -8 10 19 13 30 13 30 0z m-183 -22 c-3 -8 -6 -5 -6 6 -1
11 2 17 5 13 3 -3 4 -12 1 -19z m-510 -10 c-3 -8 -6 -5 -6 6 -1 11 2 17 5 13
3 -3 4 -12 1 -19z m-830 6 c-3 -3 -12 -4 -19 -1 -8 3 -5 6 6 6 11 1 17 -2 13
-5z m1493 -15 c0 -6 -4 -7 -10 -4 -5 3 -10 11 -10 16 0 6 5 7 10 4 6 -3 10
-11 10 -16z m-1637 4 c-7 -2 -19 -2 -25 0 -7 3 -2 5 12 5 14 0 19 -2 13 -5z
m1667 -3 c0 -5 -4 -10 -10 -10 -5 0 -10 5 -10 10 0 6 5 10 10 10 6 0 10 -4 10
-10z m-2553 -77 c-3 -10 -5 -2 -5 17 0 19 2 27 5 18 2 -10 2 -26 0 -35z m53
26 c0 -6 -4 -7 -10 -4 -5 3 -10 11 -10 16 0 6 5 7 10 4 6 -3 10 -11 10 -16z
m51 -21 l-5 -33 -6 30 c-7 32 -3 48 9 41 4 -3 5 -20 2 -38z m291 12 c-2 -16
-6 -30 -8 -30 -2 0 -4 14 -4 30 0 17 4 30 8 30 5 0 7 -13 4 -30z m28 -17 c-11
-17 -11 -17 -6 0 3 10 7 26 7 35 1 15 2 15 6 0 2 -10 -1 -25 -7 -35z m745 37
c4 -6 12 -7 18 -4 7 4 9 4 5 -1 -4 -4 -3 -14 3 -22 9 -10 7 -13 -9 -13 -16 0
-20 -4 -15 -17 4 -11 8 -12 11 -5 8 25 22 10 22 -24 0 -33 -2 -35 -30 -32 -17
2 -30 7 -30 11 0 4 0 32 0 62 0 51 10 69 25 45z m-1019 -25 c1 -14 -2 -25 -7
-25 -5 0 -9 11 -9 25 0 33 15 33 16 0z m83 -2 l-1 -28 -8 25 c-8 24 -8 24 -9
3 -1 -31 -21 -29 -21 2 0 18 5 25 20 25 15 0 20 -6 19 -27z m81 -4 c0 -10 -4
-19 -10 -19 -5 0 -10 12 -10 26 0 14 4 23 10 19 6 -3 10 -15 10 -26z m720 27
c0 -9 -30 -14 -35 -6 -4 6 3 10 14 10 12 0 21 -2 21 -4z m-970 -42 c0 -2 -7
-4 -15 -4 -8 0 -15 4 -15 10 0 5 7 7 15 4 8 -4 15 -8 15 -10z m1060 -44 c0 -5
-2 -10 -4 -10 -3 0 -8 5 -11 10 -3 6 -1 10 4 10 6 0 11 -4 11 -10z m78 -52
c-6 -18 -28 -21 -28 -4 0 9 7 16 16 16 9 0 14 -5 12 -12z m2532 2 c0 -5 -2
-10 -4 -10 -3 0 -8 5 -11 10 -3 6 -1 10 4 10 6 0 11 -4 11 -10z m80 -8 c0 -4
-9 -8 -20 -8 -11 0 -20 4 -20 8 0 4 9 8 20 8 11 0 20 -4 20 -8z m105 -3 c11
-16 1 -19 -13 -3 -7 8 -8 14 -3 14 5 0 13 -5 16 -11z m-54 -62 c-8 -8 -11 -2
-11 19 0 40 14 54 18 19 2 -15 -1 -32 -7 -38z m-724 31 c-3 -8 -6 -5 -6 6 -1
11 2 17 5 13 3 -3 4 -12 1 -19z m39 -24 c-3 -8 -11 -14 -18 -14 -9 0 -9 3 0
12 7 7 13 21 13 33 1 17 2 18 6 2 3 -10 2 -25 -1 -33z m723 4 c1 -5 -3 -8 -9
-8 -5 0 -10 12 -9 28 0 24 1 25 9 7 5 -11 9 -23 9 -27z m-2702 26 c-3 -3 -12
-4 -19 -1 -8 3 -5 6 6 6 11 1 17 -2 13 -5z m1858 -33 c-3 -6 -14 -10 -23 -10
-15 1 -15 2 1 6 9 2 17 9 17 15 0 6 3 9 6 5 3 -3 3 -10 -1 -16z m167 -3 c-7
-7 -12 -8 -12 -2 0 14 12 26 19 19 2 -3 -1 -11 -7 -17z m598 -42 c0 -3 -4 -8
-10 -11 -5 -3 -10 -1 -10 4 0 6 5 11 10 11 6 0 10 -2 10 -4z m41 -57 l-10 -24
0 26 c-1 14 2 29 6 33 12 12 14 -9 4 -35z m-72 -19 c1 -13 0 -13 -9 0 -5 8 -9
24 -9 35 l0 20 9 -20 c5 -11 9 -27 9 -35z m128 13 c-3 -10 -5 -4 -5 12 0 17 2
24 5 18 2 -7 2 -21 0 -30z m-187 12 c0 -8 -4 -15 -10 -15 -5 0 -10 7 -10 15 0
8 5 15 10 15 6 0 10 -7 10 -15z m169 -27 c1 -5 -3 -8 -9 -8 -5 0 -10 12 -9 28
0 24 1 25 9 7 5 -11 9 -23 9 -27z m-75 -63 c-4 -8 -8 -15 -10 -15 -2 0 -4 7
-4 15 0 8 4 15 10 15 5 0 7 -7 4 -15z m-39 -5 c-3 -5 -1 -18 4 -27 6 -10 11
-12 11 -5 0 20 20 14 20 -7 0 -33 -18 -33 -35 -2 -18 35 -19 51 -4 51 5 0 7
-4 4 -10z m77 -30 c-3 -32 -1 -40 12 -40 12 0 16 10 16 40 0 22 4 40 9 40 5 0
8 -20 7 -45 0 -25 -4 -45 -8 -45 -5 0 -17 0 -28 0 -17 0 -20 7 -20 45 0 25 3
45 8 45 4 0 6 -18 4 -40z m-465 -82 c-3 -7 -5 -2 -5 12 0 14 2 19 5 13 2 -7 2
-19 0 -25z m396 -63 c-3 -9 -8 -14 -10 -11 -3 3 -2 9 2 15 9 16 15 13 8 -4z
m37 -25 c0 -16 -3 -30 -7 -30 -5 0 -8 14 -8 30 0 17 3 30 8 30 4 0 7 -13 7
-30z m67 24 c-3 -3 -12 -4 -19 -1 -8 3 -5 6 6 6 11 1 17 -2 13 -5z m-170 -36
c-3 -8 -6 -5 -6 6 -1 11 2 17 5 13 3 -3 4 -12 1 -19z m-497 5 c0 -5 -5 -15
-10 -23 -8 -12 -10 -11 -10 8 0 12 5 22 10 22 6 0 10 -3 10 -7z m-60 -18 c0
-8 -2 -15 -4 -15 -2 0 -6 7 -10 15 -3 8 -1 15 4 15 6 0 10 -7 10 -15z m127
-47 c-2 -13 -4 -3 -4 22 0 25 2 35 4 23 2 -13 2 -33 0 -45z m20 20 c-3 -7 -5
-2 -5 12 0 14 2 19 5 13 2 -7 2 -19 0 -25z m35 2 c-2 -17 -9 -33 -15 -37 -7
-4 -8 0 -4 11 4 10 7 26 7 37 0 10 4 19 8 19 5 0 7 -14 4 -30z m104 -5 c-1
-36 -16 -51 -16 -16 0 18 9 51 14 51 2 0 2 -16 2 -35z m-209 -7 c-3 -8 -6 -5
-6 6 -1 11 2 17 5 13 3 -3 4 -12 1 -19z m-110 -10 c-3 -8 -6 -5 -6 6 -1 11 2
17 5 13 3 -3 4 -12 1 -19z m86 2 c3 -11 1 -20 -4 -20 -5 0 -9 9 -9 20 0 11 2
20 4 20 2 0 6 -9 9 -20z m154 -12 c-3 -7 -5 -2 -5 12 0 14 2 19 5 13 2 -7 2
-19 0 -25z m43 2 c0 -5 -5 -10 -11 -10 -5 0 -7 5 -4 10 3 6 8 10 11 10 2 0 4
-4 4 -10z m57 -152 c-2 -13 -4 -3 -4 22 0 25 2 35 4 23 2 -13 2 -33 0 -45z
m-330 0 c-2 -13 -4 -5 -4 17 -1 22 1 32 4 23 2 -10 2 -28 0 -40z m260 15 c-3
-10 -5 -4 -5 12 0 17 2 24 5 18 2 -7 2 -21 0 -30z m113 -17 c0 -40 -10 -27
-15 20 -4 28 -2 35 5 24 5 -8 10 -28 10 -44z m70 9 c0 -11 -5 -27 -10 -35 -7
-11 -10 -1 -10 35 0 36 3 46 10 35 5 -8 10 -24 10 -35z m-140 20 c0 -8 -4 -15
-10 -15 -5 0 -10 7 -10 15 0 8 5 15 10 15 6 0 10 -7 10 -15z m97 -22 c-3 -10
-5 -4 -5 12 0 17 2 24 5 18 2 -7 2 -21 0 -30z m195 -313 c3 -16 1 -30 -4 -30
-4 0 -8 14 -8 30 0 17 2 30 4 30 2 0 6 -13 8 -30z m95 -17 c-3 -10 -5 -2 -5
17 0 19 2 27 5 18 2 -10 2 -26 0 -35z m30 15 c-3 -7 -5 -2 -5 12 0 14 2 19 5
13 2 -7 2 -19 0 -25z m39 -36 c-11 -10 -14 3 -7 38 l6 35 3 -33 c2 -19 1 -36
-2 -40z m-349 16 c-3 -8 -6 -5 -6 6 -1 11 2 17 5 13 3 -3 4 -12 1 -19z m-150
-160 c-3 -8 -6 -5 -6 6 -1 11 2 17 5 13 3 -3 4 -12 1 -19z m-260 -115 c-2 -16
-4 -3 -4 27 0 30 2 43 4 28 2 -16 2 -40 0 -55z m30 35 c-3 -7 -5 -2 -5 12 0
14 2 19 5 13 2 -7 2 -19 0 -25z m228 22 c3 -5 1 -10 -4 -10 -6 0 -11 5 -11 10
0 6 2 10 4 10 3 0 8 -4 11 -10z m-73 -30 c-2 -16 -6 -30 -8 -30 -2 0 -4 14 -4
30 0 17 4 30 8 30 5 0 7 -13 4 -30z m105 -17 c-3 -10 -5 -2 -5 17 0 19 2 27 5
18 2 -10 2 -26 0 -35z m-80 -5 c-3 -7 -5 -2 -5 12 0 14 2 19 5 13 2 -7 2 -19
0 -25z m53 10 c0 -18 -2 -20 -9 -8 -6 8 -7 18 -5 22 9 14 14 9 14 -14z m-123
-130 c-2 -13 -4 -3 -4 22 0 25 2 35 4 23 2 -13 2 -33 0 -45z m296 -19 c-4 -4
-6 13 -3 39 l5 47 3 -39 c2 -21 0 -42 -5 -47z m-225 30 c-3 -20 -5 -19 -9 9
-3 20 -2 29 4 23 5 -5 7 -19 5 -32z m187 31 c3 -5 1 -10 -4 -10 -6 0 -11 5
-11 10 0 6 2 10 4 10 3 0 8 -4 11 -10z m155 -32 c0 -49 -6 -47 -14 5 -3 22 -2
37 4 37 6 0 10 -19 10 -42z m-300 22 c0 -5 -2 -10 -4 -10 -3 0 -8 5 -11 10 -3
6 -1 10 4 10 6 0 11 -4 11 -10z m77 -27 c-3 -10 -5 -4 -5 12 0 17 2 24 5 18 2
-7 2 -21 0 -30z m30 -15 c-2 -13 -4 -5 -4 17 -1 22 1 32 4 23 2 -10 2 -28 0
-40z m123 42 c0 -5 -4 -10 -10 -10 -5 0 -10 5 -10 10 0 6 5 10 10 10 6 0 10
-4 10 -10z m-93 -47 c-3 -10 -5 -4 -5 12 0 17 2 24 5 18 2 -7 2 -21 0 -30z
m89 -10 c-11 -11 -17 4 -9 23 7 18 8 18 11 1 2 -10 1 -21 -2 -24z m31 5 c-3
-7 -5 -2 -5 12 0 14 2 19 5 13 2 -7 2 -19 0 -25z m-263 6 c3 -8 2 -12 -4 -9
-6 3 -10 10 -10 16 0 14 7 11 14 -7z m-57 -156 c-3 -8 -6 -5 -6 6 -1 11 2 17
5 13 3 -3 4 -12 1 -19z m56 -51 c8 -6 7 -7 -2 -5 -16 5 -33 53 -22 63 3 4 8
-6 9 -22 2 -15 9 -32 15 -36z m-126 6 c-3 -10 -5 -4 -5 12 0 17 2 24 5 18 2
-7 2 -21 0 -30z m43 17 c0 -5 -4 -10 -10 -10 -5 0 -10 5 -10 10 0 6 5 10 10
10 6 0 10 -4 10 -10z"/>
<path d="M1097 3000 c3 -11 10 -20 17 -20 6 0 17 9 24 20 11 18 10 20 -17 20
-24 0 -28 -3 -24 -20z"/>
<path d="M3750 2940 c0 -11 5 -20 10 -20 6 0 10 9 10 20 0 11 -4 20 -10 20 -5
0 -10 -9 -10 -20z"/>
<path d="M451 3984 c0 -11 3 -14 6 -6 3 7 2 16 -1 19 -3 4 -6 -2 -5 -13z"/>
<path d="M1027 3559 c8 -8 16 -8 30 0 16 9 14 10 -11 11 -22 0 -27 -3 -19 -11z"/>
<path d="M1101 3544 c0 -11 3 -14 6 -6 3 7 2 16 -1 19 -3 4 -6 -2 -5 -13z"/>
<path d="M1137 3239 c7 -7 15 -10 18 -7 3 3 -2 9 -12 12 -14 6 -15 5 -6 -5z"/>
<path d="M1587 3204 c-3 -3 -38 -6 -76 -6 -39 1 -73 -3 -75 -7 -3 -5 8 -21 24
-37 16 -16 30 -39 30 -52 0 -22 2 -23 67 -18 66 6 103 24 103 52 0 7 -8 15
-17 17 -10 3 -3 5 15 6 28 1 32 -2 32 -24 0 -16 6 -25 15 -25 10 0 15 10 15
29 0 25 -5 30 -48 44 -26 9 -55 19 -63 22 -8 3 -18 3 -22 -1z"/>
<path d="M1897 2953 c-13 -13 -7 -31 12 -36 27 -7 32 1 18 24 -13 20 -20 23
-30 12z"/>
<path d="M1682 2548 c3 -62 7 -116 7 -120 1 -5 7 -8 14 -8 18 0 17 132 -1 138
-10 3 -10 7 -1 18 8 10 8 14 0 14 -15 0 -14 43 1 58 9 9 8 12 -7 12 -19 0 -20
-5 -13 -112z"/>
<path d="M1468 2603 c6 -2 18 -2 25 0 6 3 1 5 -13 5 -14 0 -19 -2 -12 -5z"/>
<path d="M1330 2531 c0 -6 4 -11 10 -11 5 0 12 -11 16 -25 9 -36 26 -31 22 8
-2 24 -8 33 -25 35 -13 2 -23 -1 -23 -7z"/>
<path d="M1750 2526 c0 -8 4 -17 9 -21 6 -3 9 4 8 15 -1 23 -17 28 -17 6z"/>
<path d="M1402 2459 c4 -12 88 -20 88 -8 0 7 -50 19 -77 19 -8 0 -13 -5 -11
-11z"/>
<path d="M1630 2375 c0 -42 3 -55 15 -55 12 0 15 13 15 55 0 42 -3 55 -15 55
-12 0 -15 -13 -15 -55z"/>
<path d="M1750 2405 c-1 -5 -2 -13 -1 -17 0 -5 -3 -8 -9 -8 -5 0 -10 5 -10 10
0 12 -27 13 -34 2 -3 -4 -7 -26 -10 -48 -2 -21 -7 -51 -11 -66 -5 -21 -3 -29
9 -34 21 -8 21 -24 0 -24 -10 0 -14 -5 -10 -16 3 -8 2 -13 -3 -9 -5 3 -12 -1
-14 -7 -3 -7 -6 -3 -6 9 -1 18 -6 22 -26 21 -26 -2 -34 -22 -12 -32 6 -3 3 -4
-8 -3 -14 1 -21 -5 -23 -20 -2 -16 2 -23 12 -23 13 0 16 -13 16 -70 0 -56 3
-70 15 -70 12 0 15 15 15 73 0 39 5 79 10 87 6 10 10 11 10 3 0 -7 7 -13 15
-13 9 0 15 -9 15 -21 0 -12 5 -19 13 -16 10 3 14 89 6 133 -1 5 -1 16 0 24 1
13 2 13 12 0 8 -12 10 -12 8 5 -3 44 2 75 12 75 6 0 9 -9 6 -20 -3 -11 -1 -20
3 -20 5 0 11 10 13 23 l4 22 2 -22 c0 -13 5 -23 10 -23 5 0 7 10 4 23 -3 16
-2 18 5 9 7 -11 10 -10 16 3 9 23 8 24 -13 18 -14 -3 -21 3 -29 24 -6 15 -11
24 -12 18z"/>
<path d="M1260 2344 c0 -7 8 -10 21 -7 19 5 21 3 15 -20 -4 -16 -2 -27 4 -27
5 0 10 9 10 19 0 11 3 26 6 35 4 11 -2 15 -25 14 -18 -1 -31 -6 -31 -14z"/>
<path d="M1351 2310 c1 -27 3 -29 6 -10 6 35 22 48 33 30 8 -13 10 -12 10 2 0
13 -7 17 -25 16 -22 -2 -25 -7 -24 -38z"/>
<path d="M1261 2304 c0 -11 3 -14 6 -6 3 7 2 16 -1 19 -3 4 -6 -2 -5 -13z"/>
<path d="M1390 2285 c0 -27 7 -30 30 -15 9 6 11 10 3 10 -7 0 -10 7 -7 15 4 9
0 15 -10 15 -10 0 -16 -9 -16 -25z"/>
<path d="M1550 2050 c0 -5 5 -10 11 -10 5 0 7 5 4 10 -3 6 -8 10 -11 10 -2 0
-4 -4 -4 -10z"/>
<path d="M1760 2010 c-12 -8 -10 -10 8 -10 13 0 20 4 17 10 -7 12 -6 12 -25 0z"/>
<path d="M1540 1979 c0 -24 23 -21 28 4 2 10 -3 17 -12 17 -10 0 -16 -9 -16
-21z"/>
<path d="M1540 1920 c0 -30 13 -37 38 -21 11 7 11 9 -2 14 -9 4 -13 13 -10 22
4 10 0 15 -10 15 -11 0 -16 -9 -16 -30z"/>
<path d="M1782 1925 c0 -16 2 -22 5 -12 2 9 2 23 0 30 -3 6 -5 -1 -5 -18z"/>
<path d="M1806 1883 c1 -16 2 -63 3 -105 0 -43 5 -78 10 -78 25 0 39 155 16
172 -6 5 -5 8 4 8 11 0 11 3 1 15 -20 24 -36 18 -34 -12z"/>
<path d="M1874 1848 c0 -24 5 -46 10 -50 7 -5 7 -8 -1 -8 -9 0 -11 -11 -9 -32
3 -18 5 -36 5 -40 1 -5 6 -8 12 -8 12 0 10 148 -3 156 -4 3 -6 10 -3 15 4 5 2
9 -2 9 -5 0 -9 -19 -9 -42z"/>
<path d="M1542 1846 c0 -24 5 -36 14 -36 10 0 13 10 10 32 -5 45 -24 47 -24 4z"/>
<path d="M1950 1866 c0 -9 5 -16 10 -16 6 0 10 4 10 9 0 6 -4 13 -10 16 -5 3
-10 -1 -10 -9z"/>
<path d="M840 1850 c-8 -5 -11 -12 -7 -16 4 -4 13 -2 19 4 6 6 10 14 7 16 -2
3 -11 1 -19 -4z"/>
<path d="M1748 1794 c-1 -36 0 -68 5 -71 4 -2 7 -24 7 -49 0 -79 15 -46 18 39
1 56 -1 77 -8 67 -8 -12 -10 -11 -10 7 0 16 4 21 15 17 11 -5 15 1 15 19 0 20
-16 37 -35 37 -2 0 -5 -30 -7 -66z m19 -56 c-3 -8 -6 -5 -6 6 -1 11 2 17 5 13
3 -3 4 -12 1 -19z"/>
<path d="M1580 1826 c0 -9 5 -16 10 -16 6 0 10 4 10 9 0 6 -4 13 -10 16 -5 3
-10 -1 -10 -9z"/>
<path d="M1951 1813 c1 -10 -1 -26 -6 -36 -10 -23 4 -167 16 -167 5 0 9 50 9
110 0 71 -4 110 -11 110 -5 0 -9 -8 -8 -17z"/>
<path d="M835 1811 c-3 -5 -1 -12 5 -16 5 -3 10 1 10 9 0 18 -6 21 -15 7z"/>
<path d="M1708 1749 c5 -47 16 -43 18 7 0 19 -4 34 -10 34 -7 0 -10 -15 -8
-41z"/>
<path d="M1360 1770 c0 -5 5 -10 10 -10 6 0 10 5 10 10 0 6 -4 10 -10 10 -5 0
-10 -4 -10 -10z"/>
<path d="M1555 1771 c-3 -5 -1 -12 5 -16 5 -3 10 1 10 9 0 18 -6 21 -15 7z"/>
<path d="M1646 1734 c2 -28 0 -43 -6 -39 -11 7 -13 -24 -4 -49 10 -25 33 -20
27 5 -4 14 0 26 11 34 15 11 15 13 1 19 -9 3 -13 10 -10 16 4 6 11 8 16 5 5
-4 9 -1 9 4 0 6 -4 11 -10 11 -14 0 -12 27 3 33 6 3 0 6 -15 6 -26 1 -27 -1
-22 -45z"/>
<path d="M696 1753 c-8 -8 -13 -9 -41 -12 -9 0 -15 -11 -15 -24 0 -20 4 -23
35 -19 31 4 35 8 35 33 0 31 -2 34 -14 22z"/>
<path d="M2100 1657 c0 -47 5 -89 10 -92 9 -6 3 163 -6 174 -2 2 -4 -34 -4
-82z"/>
<path d="M581 1714 c0 -11 3 -14 6 -6 3 7 2 16 -1 19 -3 4 -6 -2 -5 -13z"/>
<path d="M480 1690 c0 -5 5 -10 11 -10 5 0 7 5 4 10 -3 6 -8 10 -11 10 -2 0
-4 -4 -4 -10z"/>
<path d="M1878 1672 c-15 -3 -18 -14 -18 -63 0 -33 4 -59 10 -59 6 0 10 18 10
39 0 22 5 41 11 43 19 6 6 44 -13 40z"/>
<path d="M691 1654 c0 -11 3 -14 6 -6 3 7 2 16 -1 19 -3 4 -6 -2 -5 -13z"/>
<path d="M589 1648 c0 -7 -1 -50 -2 -95 -2 -74 0 -83 16 -83 16 0 18 9 15 95
-2 69 -6 95 -15 95 -7 0 -13 -6 -14 -12z"/>
<path d="M958 1653 c6 -2 18 -2 25 0 6 3 1 5 -13 5 -14 0 -19 -2 -12 -5z"/>
<path d="M383 1611 c2 -9 1 -40 -3 -69 -5 -40 -3 -52 7 -52 8 0 13 15 14 43 2
63 3 67 17 76 10 6 6 10 -13 13 -21 5 -26 2 -22 -11z"/>
<path d="M970 1619 c0 -5 5 -7 10 -4 6 3 10 8 10 11 0 2 -4 4 -10 4 -5 0 -10
-5 -10 -11z"/>
<path d="M1347 1609 c-3 -12 -2 -31 3 -42 7 -18 9 -14 9 21 1 46 -4 54 -12 21z"/>
<path d="M1403 1609 c-1 -12 3 -19 10 -16 17 5 21 37 5 37 -8 0 -14 -9 -15
-21z"/>
<path d="M1317 1606 c-4 -10 -5 -21 -2 -24 9 -9 17 6 13 25 -3 17 -4 17 -11
-1z"/>
<path d="M1372 1585 c1 -19 5 -35 10 -35 5 0 8 16 6 35 -1 19 -6 35 -10 35 -4
0 -7 -16 -6 -35z"/>
<path d="M672 1570 c0 -14 2 -19 5 -12 2 6 2 18 0 25 -3 6 -5 1 -5 -13z"/>
<path d="M971 1574 c0 -11 3 -14 6 -6 3 7 2 16 -1 19 -3 4 -6 -2 -5 -13z"/>
<path d="M1712 1560 c0 -19 2 -27 5 -17 2 9 2 25 0 35 -3 9 -5 1 -5 -18z"/>
<path d="M1624 1555 c1 -33 26 -33 26 0 0 15 -6 25 -14 25 -9 0 -13 -10 -12
-25z"/>
<path d="M1661 1564 c0 -11 3 -14 6 -6 3 7 2 16 -1 19 -3 4 -6 -2 -5 -13z"/>
<path d="M690 1543 c0 -22 -2 -25 -10 -13 -8 13 -10 13 -10 -2 0 -9 -6 -19
-12 -21 -7 -3 -2 -6 12 -6 22 -1 25 -6 28 -41 2 -32 0 -38 -13 -34 -19 8 -21
-29 -2 -45 19 -15 27 -4 27 37 0 26 5 35 21 39 12 4 18 11 15 20 -3 8 -6 19
-6 24 0 5 -7 9 -15 9 -10 0 -15 10 -15 30 0 17 -4 30 -10 30 -5 0 -10 -12 -10
-27z"/>
<path d="M2381 1544 c0 -11 3 -14 6 -6 3 7 2 16 -1 19 -3 4 -6 -2 -5 -13z"/>
<path d="M1910 1510 c0 -25 4 -39 10 -35 6 3 10 19 10 35 0 16 -4 32 -10 35
-6 4 -10 -10 -10 -35z"/>
<path d="M1142 1533 c10 -3 15 -11 12 -21 -5 -15 -4 -15 6 1 16 25 30 21 31
-10 l1 -28 7 25 c9 30 -3 40 -44 39 -16 -1 -22 -3 -13 -6z"/>
<path d="M938 1523 c7 -3 16 -2 19 1 4 3 -2 6 -13 5 -11 0 -14 -3 -6 -6z"/>
<path d="M1236 1516 c3 -9 2 -16 -4 -16 -5 0 -12 -12 -15 -27 -5 -26 -4 -26 9
-8 12 16 14 17 14 2 0 -25 18 -21 23 6 2 12 2 -3 0 -33 -2 -39 -1 -49 6 -35 5
12 10 43 12 70 4 48 3 50 -23 53 -22 3 -27 0 -22 -12z"/>
<path d="M2096 1499 c-10 -50 -7 -59 15 -59 19 0 21 4 14 38 -9 51 -21 60 -29
21z"/>
<path d="M1049 1508 c0 -2 -3 -37 -6 -78 -7 -97 -13 -103 -13 -12 0 41 -4 72
-10 72 -6 0 -10 -40 -10 -100 l0 -100 25 0 25 0 0 110 c0 61 -2 110 -5 110 -3
0 -5 -1 -6 -2z"/>
<path d="M1320 1436 c0 -67 2 -77 16 -72 9 3 20 6 25 6 5 0 9 25 9 55 0 44 -4
57 -17 62 -10 4 -21 11 -25 17 -4 6 -8 -24 -8 -68z m37 -38 c-2 -13 -4 -3 -4
22 0 25 2 35 4 23 2 -13 2 -33 0 -45z"/>
<path d="M2640 1500 c0 -5 5 -10 11 -10 5 0 7 5 4 10 -3 6 -8 10 -11 10 -2 0
-4 -4 -4 -10z"/>
<path d="M110 1453 c-1 -27 -7 -66 -15 -88 -8 -21 -10 -42 -5 -45 12 -7 4
-260 -9 -273 -8 -8 -11 -8 -11 1 0 19 -54 8 -58 -11 -4 -20 24 -23 31 -4 3 7
6 5 6 -5 1 -11 9 -18 21 -18 12 0 20 7 21 18 1 11 4 8 8 -8 8 -28 3 -60 -10
-60 -5 0 -9 8 -10 18 -1 22 -17 -24 -18 -55 -1 -17 5 -23 19 -23 16 0 20 -7
20 -35 0 -30 3 -35 24 -35 13 0 27 8 31 18 13 33 18 319 7 394 -6 40 -14 115
-18 166 -4 69 -10 92 -20 92 -10 0 -14 -14 -14 -47z"/>
<path d="M172 1470 c0 -19 2 -27 5 -17 2 9 2 25 0 35 -3 9 -5 1 -5 -18z"/>
<path d="M934 1433 c2 -37 5 -85 5 -105 1 -31 5 -38 21 -38 20 0 21 5 18 103
-3 97 -4 102 -26 105 -22 3 -22 1 -18 -65z"/>
<path d="M1452 1433 c1 -60 2 -62 5 -18 3 37 7 46 14 35 8 -12 10 -10 6 8 -4
17 0 25 16 32 19 8 18 9 -10 9 l-33 1 2 -67z"/>
<path d="M1545 1483 c-6 -10 -9 -37 -7 -60 2 -33 7 -43 20 -42 10 0 12 3 5 6
-15 5 -18 63 -4 63 5 0 12 -6 14 -12 3 -7 6 -3 6 10 1 14 -5 22 -15 22 -14 0
-14 3 -4 15 7 8 8 15 4 15 -5 0 -14 -8 -19 -17z"/>
<path d="M1623 1465 c0 -22 2 -30 4 -17 2 12 2 30 0 40 -3 9 -5 -1 -4 -23z"/>
<path d="M1650 1465 c0 -19 5 -35 10 -35 6 0 10 16 10 35 0 19 -4 35 -10 35
-5 0 -10 -16 -10 -35z"/>
<path d="M1708 1492 c-15 -3 -18 -15 -18 -75 0 -85 7 -117 26 -117 10 0 14 14
14 51 0 31 -4 48 -10 44 -5 -3 -10 -1 -10 4 0 6 5 11 10 11 14 0 13 47 -1 56
-8 4 -7 9 2 15 17 10 9 17 -13 11z"/>
<path d="M1760 1394 c0 -96 1 -104 19 -104 18 0 20 9 23 104 3 102 3 104 -19
104 -22 0 -23 -3 -23 -104z"/>
<path d="M660 1480 c0 -5 5 -10 10 -10 6 0 10 5 10 10 0 6 -4 10 -10 10 -5 0
-10 -4 -10 -10z"/>
<path d="M813 1483 c-18 -7 -16 -23 2 -23 8 0 15 7 15 15 0 8 -1 15 -2 14 -2
0 -9 -3 -15 -6z"/>
<path d="M466 1418 c-8 -53 -8 -139 -1 -146 2 -2 13 -1 25 3 15 5 19 12 15 23
-4 10 -7 42 -7 72 0 30 -5 61 -10 68 -7 8 -7 12 1 12 7 0 9 5 6 10 -13 21 -23
8 -29 -42z"/>
<path d="M880 1460 c0 -6 7 -10 15 -10 8 0 15 2 15 4 0 2 -7 6 -15 10 -8 3
-15 1 -15 -4z"/>
<path d="M1602 1450 c0 -14 2 -19 5 -12 2 6 2 18 0 25 -3 6 -5 1 -5 -13z"/>
<path d="M2300 1419 c0 -48 -1 -51 -14 -33 -8 10 -13 30 -10 44 4 22 3 23 -5
5 -5 -11 -10 -32 -10 -47 -1 -22 4 -27 27 -30 21 -2 27 -8 25 -25 -2 -17 2
-23 17 -23 16 0 18 3 11 18 -6 9 -13 43 -16 74 -8 74 -25 85 -25 17z"/>
<path d="M1871 1443 c1 -10 5 -31 9 -48 7 -27 8 -25 9 18 0 26 -3 47 -9 47 -5
0 -9 -8 -9 -17z"/>
<path d="M1917 1453 c-11 -10 -8 -83 3 -83 6 0 10 20 10 45 0 46 -2 50 -13 38z"/>
<path d="M2227 1416 c-5 -21 -6 -41 -3 -44 12 -11 17 7 14 44 l-3 39 -8 -39z"/>
<path d="M2389 1448 c0 -2 -2 -22 -5 -45 -5 -39 -4 -43 15 -43 12 0 21 5 21
10 0 6 -4 10 -10 10 -5 0 -10 7 -10 15 0 8 6 15 13 15 9 0 8 3 -2 9 -7 5 -10
14 -7 20 4 6 2 11 -3 11 -6 0 -11 -1 -12 -2z"/>
<path d="M2458 1400 c-2 -35 1 -50 10 -50 8 0 12 17 12 50 0 65 -17 65 -22 0z"/>
<path d="M760 1420 c0 -5 5 -10 10 -10 6 0 10 5 10 10 0 6 -4 10 -10 10 -5 0
-10 -4 -10 -10z"/>
<path d="M878 1369 c5 -74 9 -73 14 4 3 36 0 57 -6 57 -7 0 -10 -22 -8 -61z"/>
<path d="M1108 1405 c2 -14 6 -25 8 -25 2 0 4 11 4 25 0 14 -4 25 -9 25 -4 0
-6 -11 -3 -25z"/>
<path d="M1847 1423 c-11 -10 -8 -43 3 -43 6 0 10 11 10 25 0 26 -2 29 -13 18z"/>
<path d="M1167 1400 c3 -11 7 -20 9 -20 2 0 4 9 4 20 0 11 -4 20 -9 20 -5 0
-7 -9 -4 -20z"/>
<path d="M1602 1400 c0 -14 2 -19 5 -12 2 6 2 18 0 25 -3 6 -5 1 -5 -13z"/>
<path d="M1620 1403 c0 -13 5 -23 10 -23 13 0 13 11 0 30 -8 12 -10 11 -10 -7z"/>
<path d="M2100 1390 c0 -5 5 -10 10 -10 6 0 10 5 10 10 0 6 -4 10 -10 10 -5 0
-10 -4 -10 -10z"/>
<path d="M2630 1390 c0 -5 5 -10 10 -10 6 0 10 5 10 10 0 6 -4 10 -10 10 -5 0
-10 -4 -10 -10z"/>
<path d="M322 1370 c0 -14 2 -19 5 -12 2 6 2 18 0 25 -3 6 -5 1 -5 -13z"/>
<path d="M1986 1333 c-7 -58 0 -73 34 -72 8 0 5 4 -8 10 -13 5 -20 14 -17 20
4 6 13 8 21 5 8 -3 14 1 14 9 0 8 -7 15 -15 15 -8 0 -15 7 -15 16 0 8 5 12 10
9 6 -3 10 -2 10 4 0 5 -6 12 -12 14 -10 4 -9 8 2 16 13 9 13 11 -1 11 -12 0
-18 -14 -23 -57z"/>
<path d="M170 1345 c0 -14 5 -25 10 -25 6 0 10 11 10 25 0 14 -4 25 -10 25 -5
0 -10 -11 -10 -25z"/>
<path d="M671 1330 c-1 -25 -4 -55 -7 -67 -6 -22 -3 -23 45 -23 44 0 51 3 51
20 0 24 -25 27 -34 4 -10 -27 -19 -7 -19 41 0 30 -4 45 -12 45 -7 0 -16 6 -18
13 -3 6 -6 -8 -6 -33z"/>
<path d="M2762 1354 c-11 -12 -9 -14 8 -14 11 0 20 4 20 9 0 17 -15 19 -28 5z"/>
<path d="M2635 1350 c-8 -13 15 -24 27 -12 6 6 4 11 -6 15 -8 3 -18 2 -21 -3z"/>
<path d="M2080 1340 c36 -12 60 -12 60 0 0 6 -19 10 -42 9 -37 -1 -39 -2 -18
-9z"/>
<path d="M2665 1320 c-25 -26 -27 -32 -15 -40 23 -15 25 -13 37 30 5 22 9 40
8 40 0 0 -14 -14 -30 -30z"/>
<path d="M1227 1320 c7 -25 36 -23 41 3 3 12 -3 17 -21 17 -20 0 -24 -4 -20
-20z"/>
<path d="M2501 1196 c-1 -120 -4 -143 -18 -153 -9 -7 -12 -13 -6 -13 18 0 28
-68 28 -197 0 -116 -1 -122 -19 -117 -14 5 -11 -2 11 -23 33 -32 52 -83 31
-83 -9 0 -10 -2 -2 -8 8 -5 14 -99 19 -304 l8 -298 143 0 144 0 0 45 c0 25 0
48 -1 52 -1 10 32 26 39 18 4 -4 2 -10 -5 -12 -10 -3 -10 -9 0 -25 9 -16 9
-22 0 -25 -7 -3 -13 -9 -13 -14 0 -6 4 -8 9 -5 5 3 11 -3 14 -14 4 -15 14 -20
42 -20 21 0 34 4 30 10 -3 6 0 10 7 11 7 0 3 4 -10 10 -13 5 -20 13 -17 19 3
5 -2 10 -12 10 -17 1 -17 1 0 14 17 13 16 14 -3 19 -11 3 -20 10 -20 17 0 7 8
9 20 5 11 -4 20 -2 20 4 0 5 -24 11 -52 13 l-53 3 1 75 c1 41 4 116 7 165 6
90 9 195 8 228 -1 13 -10 17 -46 17 -40 0 -45 -3 -46 -22 -3 -44 -7 -164 -8
-235 -1 -55 -4 -73 -15 -73 -15 0 -16 41 -1 52 6 4 2 8 -7 8 -12 0 -18 -8 -18
-22 0 -19 -2 -20 -10 -8 -16 25 -12 50 10 50 13 0 18 5 14 15 -4 8 -1 15 6 15
7 0 3 8 -8 19 -18 15 -22 29 -22 77 0 78 8 104 31 104 11 0 19 3 19 8 0 4 -28
7 -63 7 l-62 0 3 -31 c3 -27 0 -32 -25 -37 -34 -7 -40 -1 -46 40 -3 17 -8 37
-12 42 -3 6 0 11 7 11 10 0 10 2 1 8 -13 8 -14 52 -1 52 4 0 8 8 8 18 0 14 -2
15 -10 2 -7 -11 -10 -6 -10 22 0 32 3 35 21 31 14 -4 19 -12 16 -23 -3 -14 3
-19 24 -22 29 -5 39 5 18 17 -6 4 -8 13 -5 20 3 10 -6 15 -32 17 l-37 3 3 240
c1 132 5 254 7 271 5 29 3 32 -23 36 l-29 4 -2 -140z m134 -696 c3 -5 -1 -10
-9 -10 -9 0 -16 5 -16 10 0 6 4 10 9 10 6 0 13 -4 16 -10z m-5 -65 c0 -8 -4
-15 -10 -15 -5 0 -10 7 -10 15 0 8 5 15 10 15 6 0 10 -7 10 -15z m20 -230 c0
-8 -7 -15 -15 -15 -8 0 -15 7 -15 15 0 8 7 15 15 15 8 0 15 -7 15 -15z m27
-20 c0 -8 -4 -15 -9 -15 -4 0 -8 7 -8 15 0 8 4 15 8 15 5 0 9 -7 9 -15z"/>
<path d="M1320 1320 c0 -5 16 -10 35 -10 19 0 35 5 35 10 0 6 -16 10 -35 10
-19 0 -35 -4 -35 -10z"/>
<path d="M2285 1321 c3 -5 1 -12 -5 -16 -14 -9 -13 -28 2 -23 14 5 21 48 7 48
-5 0 -8 -4 -4 -9z"/>
<path d="M28 1298 c4 -16 7 -18 10 -8 3 8 10 18 16 22 6 5 2 8 -11 8 -17 0
-20 -4 -15 -22z"/>
<path d="M2202 1300 c-11 -18 -10 -20 13 -20 27 0 28 1 19 24 -8 21 -17 20
-32 -4z"/>
<path d="M2748 1313 c-10 -2 -18 -8 -18 -13 0 -16 20 -22 34 -11 7 6 16 8 19
4 4 -3 7 1 7 10 0 17 -9 19 -42 10z"/>
<path d="M2070 1275 c0 -24 6 -37 19 -45 29 -15 41 -12 41 10 0 13 -7 20 -20
20 -32 0 -24 30 8 31 24 0 25 1 7 9 -42 18 -55 12 -55 -25z"/>
<path d="M1433 1284 c-6 -10 -13 -36 -16 -56 -5 -31 -2 -40 14 -48 11 -6 19
-21 19 -35 0 -14 5 -25 10 -25 6 0 10 16 10 35 0 24 -5 35 -15 35 -16 0 -21
16 -6 22 18 6 22 52 8 72 -14 19 -14 19 -24 0z m17 -30 c0 -14 -4 -23 -9 -20
-5 3 -7 15 -4 26 7 28 13 25 13 -6z"/>
<path d="M2314 1234 c-1 -58 0 -64 13 -51 11 11 12 20 5 33 -5 11 -7 34 -5 52
3 17 1 32 -3 32 -5 0 -10 -30 -10 -66z"/>
<path d="M314 1276 c-9 -23 0 -51 16 -51 9 0 15 12 17 33 2 23 -1 32 -12 32
-9 0 -18 -6 -21 -14z"/>
<path d="M550 1265 c0 -8 2 -15 4 -15 2 0 6 7 10 15 3 8 1 15 -4 15 -6 0 -10
-7 -10 -15z"/>
<path d="M620 1270 c0 -5 4 -10 9 -10 6 0 13 5 16 10 3 6 -1 10 -9 10 -9 0
-16 -4 -16 -10z"/>
<path d="M771 1254 c0 -11 3 -14 6 -6 3 7 2 16 -1 19 -3 4 -6 -2 -5 -13z"/>
<path d="M2850 1240 c0 -16 4 -30 9 -30 13 0 21 27 15 45 -10 25 -24 17 -24
-15z"/>
<path d="M177 1253 c-4 -3 -7 -11 -7 -17 0 -6 5 -5 12 2 6 6 9 14 7 17 -3 3
-9 2 -12 -2z"/>
<path d="M244 1252 c3 -5 6 -37 7 -70 1 -34 6 -62 10 -62 5 0 9 10 10 23 0 29
6 78 10 97 3 9 -5 16 -20 18 -13 2 -21 -1 -17 -6z"/>
<path d="M459 1255 c-1 -3 -2 -11 -3 -17 0 -7 -10 -14 -20 -16 -13 -3 -17 0
-14 10 4 10 -4 15 -30 16 -30 3 -33 1 -23 -12 9 -11 11 -31 6 -66 -6 -47 -6
-50 15 -50 21 0 22 3 15 56 -5 40 -3 54 4 50 6 -4 11 -14 11 -21 0 -12 5 -12
25 -3 19 9 28 9 37 0 9 -9 7 -12 -10 -12 -13 0 -22 -6 -22 -15 0 -8 5 -15 10
-15 6 0 10 -9 10 -20 0 -12 -7 -20 -16 -20 -14 0 -15 -10 -9 -82 5 -46 8 -88
8 -95 0 -7 6 -14 14 -17 16 -7 17 -30 2 -54 -14 -22 -3 -116 12 -107 11 7 25
-23 15 -33 -4 -3 -11 0 -16 8 -7 11 -10 0 -10 -35 -1 -42 -3 -46 -11 -27 -5
13 -7 28 -4 32 3 5 1 11 -5 15 -5 3 -10 15 -10 26 0 10 -4 19 -10 19 -13 0
-13 -6 0 -31 8 -15 7 -23 -5 -35 -13 -14 -15 -11 -16 33 -2 46 -2 47 -9 13 -6
-35 -13 -30 -23 15 -3 11 -5 -6 -6 -37 0 -32 3 -58 8 -58 5 0 7 9 4 20 -3 11
0 20 6 20 6 0 11 -9 11 -20 0 -13 7 -20 19 -20 25 0 37 -18 22 -33 -17 -17
-14 -77 4 -77 11 0 15 12 15 45 0 39 3 45 21 45 19 0 21 4 16 35 -4 24 -2 35
7 35 8 0 11 -12 8 -35 -3 -21 0 -35 7 -35 7 0 11 24 11 66 0 41 -4 63 -10 59
-6 -4 -10 11 -10 38 0 31 5 47 15 51 19 7 20 26 2 26 -11 0 -13 30 -11 158 4
190 1 212 -32 212 -13 0 -25 -2 -25 -5z"/>
<path d="M588 1253 c7 -3 16 -2 19 1 4 3 -2 6 -13 5 -11 0 -14 -3 -6 -6z"/>
<path d="M790 1250 c0 -5 5 -10 11 -10 5 0 7 5 4 10 -3 6 -8 10 -11 10 -2 0
-4 -4 -4 -10z"/>
<path d="M820 1237 c0 -31 13 -87 20 -87 4 0 11 12 16 28 l8 27 6 -35 7 -35 3
30 c1 17 4 41 5 55 3 22 -1 25 -31 27 -22 2 -34 -1 -34 -10z"/>
<path d="M1489 1246 c-3 -3 -2 -29 1 -58 4 -38 10 -54 21 -56 11 -2 19 6 23
22 8 32 22 33 29 4 8 -31 13 -22 21 40 6 44 4 52 -10 52 -12 0 -15 -6 -12 -25
3 -14 1 -28 -3 -31 -5 -3 -9 6 -9 20 0 47 -18 36 -26 -16 -7 -51 -7 -52 -17
-24 -7 21 -6 30 3 36 7 4 10 15 7 24 -6 15 -19 21 -28 12z"/>
<path d="M1620 1235 c0 -8 9 -15 20 -15 11 0 20 7 20 15 0 8 -9 15 -20 15 -11
0 -20 -7 -20 -15z"/>
<path d="M1688 1174 c-3 -49 -10 -79 -19 -84 -17 -11 -5 -24 16 -17 12 5 15
23 15 79 0 52 3 69 10 58 6 -8 10 -40 9 -70 -2 -110 1 -136 11 -120 5 8 10 34
10 58 0 23 6 51 13 62 10 17 9 26 -5 50 -10 17 -13 32 -7 35 19 12 9 26 -11
15 -14 -7 -20 -7 -20 0 0 5 -4 10 -9 10 -4 0 -11 -34 -13 -76z"/>
<path d="M1780 1195 c0 -30 5 -55 10 -55 6 0 10 15 10 34 0 19 3 41 6 49 3 8
-2 17 -10 20 -13 5 -16 -3 -16 -48z"/>
<path d="M1994 1234 c3 -9 6 -36 6 -60 0 -63 17 -54 22 11 2 39 -1 56 -10 60
-21 8 -25 6 -18 -11z"/>
<path d="M2583 1243 c-7 -2 -13 -16 -13 -29 0 -18 5 -24 22 -24 17 0 19 3 10
12 -18 18 -15 41 4 34 8 -3 12 -2 9 4 -7 11 -13 11 -32 3z"/>
<path d="M946 1209 c-9 -44 2 -79 25 -79 21 0 26 16 7 22 -16 6 -14 68 3 79
11 7 9 9 -7 9 -16 0 -23 -8 -28 -31z"/>
<path d="M1022 1228 c-14 -14 -16 -76 -4 -96 5 -7 16 -10 25 -6 13 5 17 19 17
60 0 55 -12 68 -38 42z m25 -43 c-1 -19 -5 -35 -9 -35 -4 0 -8 16 -8 35 0 19
4 35 9 35 5 0 9 -16 8 -35z"/>
<path d="M1083 1188 c3 -74 27 -78 27 -4 0 43 -3 56 -15 56 -11 0 -14 -12 -12
-52z"/>
<path d="M1130 1191 c0 -28 5 -53 10 -56 6 -4 10 15 10 49 0 31 -4 56 -10 56
-5 0 -10 -22 -10 -49z"/>
<path d="M1170 1185 c0 -30 5 -55 10 -55 6 0 10 25 10 55 0 30 -4 55 -10 55
-5 0 -10 -25 -10 -55z"/>
<path d="M1217 1233 c-24 -23 16 -115 43 -98 9 5 5 13 -15 29 -18 15 -24 26
-19 39 3 10 13 16 20 13 8 -3 14 1 14 9 0 15 -31 21 -43 8z"/>
<path d="M1287 1233 c-4 -3 -7 -21 -7 -39 0 -26 4 -32 15 -28 8 4 15 1 15 -5
0 -6 -4 -11 -10 -11 -5 0 -10 -4 -10 -10 0 -5 9 -10 20 -10 24 0 28 38 5 46
-8 4 -15 15 -15 26 0 14 5 18 15 14 8 -3 15 -1 15 3 0 5 -7 12 -16 15 -19 7
-19 7 -27 -1z"/>
<path d="M1820 1190 c0 -28 4 -49 9 -46 12 8 12 84 0 91 -5 4 -9 -16 -9 -45z"/>
<path d="M1852 1188 c3 -50 5 -53 27 -50 14 1 26 3 27 5 1 1 0 23 -3 50 -5 42
-8 47 -30 47 -23 0 -24 -3 -21 -52z m38 22 c0 -5 -4 -10 -10 -10 -5 0 -10 5
-10 10 0 6 5 10 10 10 6 0 10 -4 10 -10z m0 -46 c0 -8 -4 -12 -10 -9 -5 3 -10
10 -10 16 0 5 5 9 10 9 6 0 10 -7 10 -16z"/>
<path d="M1927 1233 c-9 -8 -9 -56 -1 -77 4 -10 17 -16 33 -15 l26 1 -24 7
c-14 4 -26 12 -29 19 -4 14 20 16 34 2 6 -6 8 4 6 30 -3 30 -9 40 -21 40 -10
0 -21 -3 -24 -7z m33 -23 c0 -11 -7 -20 -15 -20 -17 0 -18 2 -9 24 9 23 24 20
24 -4z"/>
<path d="M2647 1233 c-11 -10 -8 -41 4 -45 8 -3 6 -10 -5 -20 -22 -23 -20 -28
9 -28 23 0 25 3 25 50 0 35 -4 50 -13 50 -8 0 -17 -3 -20 -7z"/>
<path d="M2713 1224 c-4 -10 -2 -19 5 -22 8 -2 7 -8 -3 -19 -22 -22 -19 -53 5
-53 14 0 20 7 21 23 1 21 1 21 9 -3 7 -19 8 -13 8 27 -1 29 -4 51 -6 48 -3 -3
-11 0 -18 6 -11 9 -15 7 -21 -7z"/>
<path d="M2920 1185 c0 -52 1 -55 25 -55 18 0 25 5 25 20 0 11 -4 20 -10 20
-5 0 -10 -4 -10 -10 0 -5 -4 -10 -10 -10 -17 0 -11 38 8 43 16 4 16 5 0 6 -10
0 -18 8 -18 17 0 10 6 14 15 10 8 -3 15 -1 15 4 0 6 -9 10 -20 10 -18 0 -20
-7 -20 -55z"/>
<path d="M1345 1193 c4 -21 8 -44 8 -50 1 -20 15 -15 27 7 9 16 8 22 -5 26 -8
3 -15 12 -15 20 0 17 27 19 33 2 3 -7 6 -3 6 10 1 18 -4 22 -30 22 -31 0 -31
-1 -24 -37z"/>
<path d="M2997 1171 c-10 -86 -9 -171 2 -171 12 0 19 85 12 165 l-6 70 -8 -64z"/>
<path d="M3033 1190 c0 -25 2 -35 4 -22 2 12 2 32 0 45 -2 12 -4 2 -4 -23z"/>
<path d="M190 1206 c0 -10 6 -13 15 -10 21 9 19 -9 -5 -29 -28 -23 -26 -49 3
-45 19 3 22 9 22 48 0 35 -4 45 -17 48 -11 2 -18 -3 -18 -12z"/>
<path d="M683 1213 c-18 -7 -16 -50 2 -57 18 -7 20 10 3 18 -10 3 -8 9 5 19
27 22 21 33 -10 20z"/>
<path d="M2787 1213 c-2 -5 -5 -25 -5 -45 -1 -27 3 -38 13 -38 9 0 15 10 15
25 0 14 -4 25 -9 25 -5 0 -7 9 -4 20 5 19 -2 28 -10 13z"/>
<path d="M10 1168 c0 -49 5 -47 14 5 4 23 3 37 -4 37 -5 0 -10 -19 -10 -42z"/>
<path d="M732 1121 c1 -50 6 -91 11 -91 4 0 7 5 7 11 0 8 5 8 15 -1 21 -17 19
-30 -5 -30 -11 0 -20 -5 -20 -11 0 -6 6 -9 13 -6 7 3 13 -5 13 -20 1 -13 10
-30 20 -37 10 -8 15 -20 11 -30 -5 -11 -1 -16 13 -16 26 0 34 17 14 28 -11 6
-13 11 -5 16 19 12 12 36 -10 36 -19 0 -20 5 -17 70 3 63 1 70 -17 72 -16 2
-21 12 -23 47 -2 32 0 42 10 39 7 -3 13 -15 12 -27 0 -12 4 -20 10 -18 6 2 11
15 11 28 0 20 -6 25 -33 27 l-34 3 4 -90z m48 -41 c0 -5 -4 -10 -10 -10 -5 0
-10 5 -10 10 0 6 5 10 10 10 6 0 10 -4 10 -10z"/>
<path d="M310 1160 c0 -29 4 -40 15 -40 11 0 15 11 15 40 0 29 -4 40 -15 40
-11 0 -15 -11 -15 -40z"/>
<path d="M1615 1189 c-9 -14 3 -59 15 -59 6 0 8 11 4 28 -7 24 -6 26 9 13 19
-15 23 -1 5 17 -15 15 -25 15 -33 1z"/>
<path d="M2070 1185 c0 -21 28 -31 43 -16 9 9 8 14 -3 21 -22 14 -40 12 -40
-5z"/>
<path d="M2823 1165 c0 -22 2 -30 4 -17 2 12 2 30 0 40 -3 9 -5 -1 -4 -23z"/>
<path d="M2860 1163 c0 -18 5 -33 10 -33 13 0 13 30 0 50 -7 11 -10 7 -10 -17z"/>
<path d="M2588 1173 c-24 -6 -27 -123 -3 -123 8 0 15 7 15 15 0 8 -4 15 -10
15 -5 0 -10 5 -10 11 0 5 5 7 10 4 6 -3 10 -1 10 4 0 6 -6 11 -12 11 -10 0
-10 2 -1 8 14 9 36 63 25 61 -4 -1 -15 -3 -24 -6z"/>
<path d="M1415 1157 c-8 -19 -2 -31 13 -26 5 2 6 13 2 24 -7 19 -8 19 -15 2z"/>
<path d="M2203 1163 c-18 -7 -16 -50 2 -56 11 -5 13 1 9 26 -4 24 -3 28 5 17
9 -13 11 -13 11 3 0 17 -5 19 -27 10z"/>
<path d="M2330 1138 c0 -19 -2 -20 -10 -8 -7 11 -10 7 -10 -17 0 -26 3 -30 20
-26 15 4 20 14 20 39 0 19 -4 34 -10 34 -5 0 -10 -10 -10 -22z"/>
<path d="M1200 1140 c0 -5 5 -10 10 -10 6 0 10 5 10 10 0 6 -4 10 -10 10 -5 0
-10 -4 -10 -10z"/>
<path d="M780 1130 c0 -5 5 -10 10 -10 6 0 10 5 10 10 0 6 -4 10 -10 10 -5 0
-10 -4 -10 -10z"/>
<path d="M2070 1085 c0 -30 4 -55 8 -55 21 0 40 29 46 68 6 41 6 42 -24 42
-30 0 -30 -1 -30 -55z m40 4 c0 -11 -4 -17 -10 -14 -5 3 -10 13 -10 21 0 8 5
14 10 14 6 0 10 -9 10 -21z"/>
<path d="M2396 1105 c-3 -9 0 -15 9 -15 16 0 20 16 6 24 -5 3 -11 -1 -15 -9z"/>
<path d="M2000 1076 c0 -21 6 -36 15 -40 12 -4 15 3 15 34 0 29 -4 40 -15 40
-10 0 -15 -10 -15 -34z m17 -8 c-3 -8 -6 -5 -6 6 -1 11 2 17 5 13 3 -3 4 -12
1 -19z"/>
<path d="M1023 1084 c-3 -8 -1 -20 6 -27 8 -8 11 -4 11 16 0 30 -7 35 -17 11z"/>
<path d="M1280 1081 c0 -11 5 -23 10 -26 6 -4 10 5 10 19 0 14 -4 26 -10 26
-5 0 -10 -9 -10 -19z"/>
<path d="M2802 1070 c0 -14 2 -19 5 -12 2 6 2 18 0 25 -3 6 -5 1 -5 -13z"/>
<path d="M405 1070 c-3 -5 -1 -10 4 -10 6 0 11 5 11 10 0 6 -2 10 -4 10 -3 0
-8 -4 -11 -10z"/>
<path d="M1430 1044 c0 -30 3 -34 19 -29 13 4 20 0 24 -15 6 -23 27 -27 27 -5
0 8 -4 15 -10 15 -5 0 -10 12 -10 26 0 14 -4 22 -10 19 -6 -3 -7 1 -4 9 4 11
0 16 -15 16 -17 0 -21 -6 -21 -36z"/>
<path d="M2210 1071 c0 -6 5 -13 10 -16 6 -3 10 1 10 9 0 9 -4 16 -10 16 -5 0
-10 -4 -10 -9z"/>
<path d="M331 1054 c0 -11 3 -14 6 -6 3 7 2 16 -1 19 -3 4 -6 -2 -5 -13z"/>
<path d="M624 1046 c-8 -22 3 -49 19 -43 6 2 11 11 9 20 -1 8 2 18 7 21 5 3
11 -5 13 -19 4 -18 0 -26 -14 -31 -21 -6 -42 -50 -32 -65 3 -6 14 -7 25 -4 11
4 19 2 19 -4 0 -6 -11 -11 -25 -11 -24 0 -32 -10 -18 -23 3 -4 12 -2 20 4 10
9 13 7 13 -10 0 -12 -6 -21 -15 -21 -8 0 -15 -9 -15 -20 0 -11 5 -20 11 -20 5
0 8 4 4 9 -3 5 0 13 6 17 8 4 9 -3 4 -24 -5 -25 -3 -31 15 -37 30 -10 34 -3
32 61 0 43 2 54 13 50 7 -2 19 2 26 10 10 13 8 14 -20 9 l-33 -6 4 73 3 73
-33 3 c-22 2 -34 -2 -38 -12z m38 -98 c-9 -9 -12 -7 -12 12 0 19 3 21 12 12 9
-9 9 -15 0 -24z"/>
<path d="M1503 1040 c-1 -11 2 -20 8 -20 5 0 9 9 9 20 0 11 -4 20 -8 20 -4 0
-8 -9 -9 -20z"/>
<path d="M1660 1040 c0 -13 7 -20 20 -20 24 0 25 6 6 26 -20 19 -26 18 -26 -6z"/>
<path d="M2308 1035 c-5 -25 3 -40 16 -28 9 10 7 53 -3 53 -5 0 -11 -11 -13
-25z"/>
<path d="M2002 1003 c-1 -10 -5 -39 -8 -65 l-6 -48 31 0 c28 0 31 3 31 31 0
22 -5 32 -20 36 -11 3 -17 9 -15 14 3 4 12 6 20 2 18 -6 20 18 3 35 -17 17
-33 15 -36 -5z m28 -78 c0 -14 -4 -25 -10 -25 -11 0 -14 33 -3 43 11 11 13 8
13 -18z"/>
<path d="M1846 988 c-3 -7 -4 -31 -3 -53 2 -36 5 -40 30 -43 24 -3 27 0 27 27
0 17 -4 31 -9 31 -4 0 -6 -11 -3 -25 4 -25 -12 -36 -20 -12 -4 10 -3 58 2 77
0 3 8 -4 16 -15 l16 -20 -4 20 c-4 23 -46 34 -52 13z"/>
<path d="M1925 988 c3 -10 12 -120 15 -186 0 -7 4 -11 8 -8 4 2 5 38 1 78 -3
40 -3 82 2 93 5 14 8 6 8 -29 1 -35 4 -47 12 -39 5 5 9 30 7 54 -3 40 -6 44
-30 47 -20 2 -27 -1 -23 -10z"/>
<path d="M2070 945 c0 -46 3 -55 18 -55 14 0 17 9 17 55 0 46 -3 55 -17 55
-15 0 -18 -9 -18 -55z"/>
<path d="M2137 984 c3 -9 0 -20 -8 -25 -10 -6 -10 -9 -1 -9 7 0 12 -13 12 -31
0 -51 17 -23 19 31 0 38 -3 50 -14 50 -9 0 -12 -6 -8 -16z"/>
<path d="M2195 970 c9 -16 18 -30 20 -30 3 0 5 14 5 30 0 23 -4 30 -20 30 -20
0 -20 -1 -5 -30z"/>
<path d="M2398 983 c-7 -34 4 -83 18 -83 10 0 14 14 14 50 0 37 -4 50 -14 50
-8 0 -16 -8 -18 -17z"/>
<path d="M2564 987 c-2 -7 0 -31 5 -52 7 -29 9 -33 10 -15 1 14 6 32 11 40 7
11 10 6 11 -20 l1 -35 10 32 c6 18 8 39 5 47 -8 19 -46 21 -53 3z"/>
<path d="M15 980 c3 -5 12 -10 20 -10 8 0 17 5 20 10 4 6 -5 10 -20 10 -15 0
-24 -4 -20 -10z"/>
<path d="M279 958 l-1 -33 -10 28 c-12 33 -25 35 -31 5 l-4 -23 -2 23 c-1 28
-21 29 -21 1 0 -12 -4 -17 -11 -14 -6 4 -8 13 -5 21 3 8 2 14 -3 14 -11 0 -23
-92 -14 -101 5 -4 17 -9 28 -11 16 -2 21 4 24 32 l5 35 5 -40 c5 -36 7 -38 21
-24 14 15 16 15 27 0 11 -14 13 -12 14 14 1 29 1 29 8 5 6 -22 12 -24 56 -24
49 -1 50 0 53 31 2 17 -1 46 -7 64 -9 32 -9 31 -12 -26 l-2 -60 -6 52 c-9 73
-21 77 -23 7 l-2 -59 -3 53 c-3 37 -8 52 -19 52 -7 0 -17 0 -21 0 -5 1 -11
-14 -14 -32 l-6 -33 -2 32 c-1 43 -21 53 -22 11z m63 -53 c3 -14 1 -25 -3 -25
-5 0 -9 11 -9 25 0 14 2 25 4 25 2 0 6 -11 8 -25z m-141 -18 c-8 -8 -11 -7
-11 4 0 20 13 34 18 19 3 -7 -1 -17 -7 -23z"/>
<path d="M910 953 c0 -57 10 -83 31 -83 11 0 19 5 19 10 0 6 -5 10 -11 10 -6
0 -9 9 -6 20 3 11 1 20 -4 20 -5 0 -9 7 -9 15 0 8 5 15 10 15 6 0 10 7 10 15
0 8 -9 15 -20 15 -16 0 -20 -7 -20 -37z"/>
<path d="M980 936 c0 -31 5 -56 10 -56 6 0 10 18 10 40 0 30 4 40 16 40 23 0
11 24 -14 28 -20 3 -22 -1 -22 -52z"/>
<path d="M1051 933 c1 -33 4 -45 6 -28 7 49 23 54 23 7 0 -23 5 -42 10 -42 13
0 13 41 0 74 -6 17 -6 26 0 26 6 0 10 5 10 10 0 6 -11 10 -25 10 -24 0 -25 -2
-24 -57z"/>
<path d="M1120 941 c0 -27 5 -53 10 -56 6 -4 10 12 10 39 0 25 5 46 10 46 6 0
10 -21 10 -47 0 -30 4 -42 9 -33 4 8 7 33 7 55 -1 36 -4 40 -28 43 -27 3 -28
2 -28 -47z"/>
<path d="M1196 955 c-10 -50 0 -75 30 -75 22 0 24 3 24 55 0 51 -2 55 -24 55
-19 0 -25 -7 -30 -35z m38 6 c9 -13 -5 -71 -15 -65 -12 7 -11 74 0 74 6 0 12
-4 15 -9z"/>
<path d="M1270 961 c0 -24 4 -31 20 -31 11 0 20 5 20 10 0 6 -7 10 -15 10 -16
0 -20 12 -8 23 3 4 13 1 21 -6 13 -10 14 -9 10 3 -2 8 -14 16 -26 18 -19 3
-22 -1 -22 -27z"/>
<path d="M1339 983 c-1 -12 2 -108 4 -109 1 -1 19 -4 40 -8 35 -6 37 -5 37 18
0 14 -8 30 -17 35 -15 9 -15 12 -5 20 16 10 12 43 -5 49 -10 3 -13 -12 -13
-52 0 -31 -4 -56 -10 -56 -11 0 -14 25 -11 78 2 17 -2 32 -8 32 -6 0 -11 -3
-12 -7z m71 -83 c0 -5 -2 -10 -4 -10 -3 0 -8 5 -11 10 -3 6 -1 10 4 10 6 0 11
-4 11 -10z"/>
<path d="M1670 970 c6 -10 9 -24 8 -31 -2 -6 3 -14 11 -17 10 -3 12 0 8 12 -4
10 -7 26 -7 37 0 10 -7 19 -15 19 -12 0 -14 -4 -5 -20z"/>
<path d="M2630 970 c0 -22 15 -27 23 -7 3 6 6 -5 6 -25 1 -54 21 -47 21 7 0
41 -2 45 -25 45 -18 0 -25 -5 -25 -20z"/>
<path d="M2700 978 c0 -7 5 -20 10 -28 8 -12 10 -9 10 13 0 15 -4 27 -10 27
-5 0 -10 -6 -10 -12z"/>
<path d="M2732 945 c-2 -26 2 -45 8 -45 5 0 10 13 10 29 0 16 3 36 6 45 4 10
1 16 -7 16 -9 0 -15 -15 -17 -45z"/>
<path d="M2779 983 c-3 -27 -1 -75 5 -80 3 -4 6 12 6 35 0 58 18 53 23 -5 l3
-48 2 53 c2 46 0 52 -18 52 -11 0 -20 -3 -21 -7z"/>
<path d="M2860 960 c0 -18 5 -30 13 -30 9 0 11 -12 9 -40 -3 -33 -1 -40 13
-40 12 0 15 4 8 13 -5 6 -8 38 -8 70 1 49 -1 57 -17 57 -13 0 -18 -8 -18 -30z"/>
<path d="M428 968 c-2 -7 -1 -29 3 -48 6 -34 6 -33 8 13 1 46 -3 59 -11 35z"/>
<path d="M856 964 c-4 -9 -4 -19 -2 -21 8 -8 26 8 26 23 0 19 -16 18 -24 -2z"/>
<path d="M2921 964 c0 -11 3 -14 6 -6 3 7 2 16 -1 19 -3 4 -6 -2 -5 -13z"/>
<path d="M1450 960 c0 -5 5 -10 11 -10 5 0 7 5 4 10 -3 6 -8 10 -11 10 -2 0
-4 -4 -4 -10z"/>
<path d="M1502 948 c-10 -12 -10 -22 0 -44 11 -27 12 -28 15 -6 3 12 3 32 1
44 -3 19 -5 19 -16 6z"/>
<path d="M1021 913 c-1 -18 4 -33 9 -33 12 0 12 17 0 45 -7 17 -9 15 -9 -12z"/>
<path d="M2632 920 c0 -14 2 -19 5 -12 2 6 2 18 0 25 -3 6 -5 1 -5 -13z"/>
<path d="M2183 914 c-7 -18 11 -39 26 -30 17 11 13 46 -4 46 -9 0 -18 -7 -22
-16z"/>
<path d="M1272 900 c2 -17 9 -25 23 -25 14 0 21 8 23 25 3 24 3 24 -11 6 -14
-19 -14 -19 -26 0 -11 18 -11 17 -9 -6z"/>
<path d="M2320 910 c0 -5 5 -10 10 -10 6 0 10 5 10 10 0 6 -4 10 -10 10 -5 0
-10 -4 -10 -10z"/>
<path d="M1680 891 c0 -5 6 -13 13 -19 10 -9 12 -36 9 -108 -4 -89 -3 -96 15
-92 21 4 31 57 13 68 -7 4 -9 13 -6 19 4 6 12 9 17 6 15 -10 10 63 -6 79 -22
21 -19 27 10 20 29 -7 33 3 8 22 -20 15 -73 19 -73 5z m60 -95 c0 -3 -4 -8
-10 -11 -5 -3 -10 -1 -10 4 0 6 5 11 10 11 6 0 10 -2 10 -4z"/>
<path d="M0 781 c0 -61 3 -110 8 -110 23 4 32 -4 32 -26 0 -18 -5 -25 -20 -25
-19 0 -20 -7 -20 -104 0 -74 4 -106 13 -109 9 -4 9 -6 0 -6 -16 -1 -19 -286
-4 -323 5 -13 12 -35 15 -51 l6 -27 260 0 260 0 0 75 0 75 -30 0 c-30 0 -30 1
-30 55 0 41 -4 55 -14 55 -14 0 -15 -29 -1 -61 3 -10 2 -20 -4 -24 -6 -3 -11
1 -11 9 0 20 -86 20 -94 0 -7 -18 2 -41 18 -47 19 -7 19 -117 0 -117 -8 0 -15
8 -16 18 0 9 -2 22 -3 27 -2 6 -3 27 -4 48 -1 34 -3 37 -31 37 -32 0 -34 -4
-30 -82 1 -21 -3 -38 -8 -38 -5 0 -10 35 -10 77 -1 58 -5 81 -17 89 -8 6 -16
26 -18 45 -2 29 -7 34 -30 37 l-29 3 7 211 c6 229 7 228 -49 228 -25 0 -27 3
-22 25 6 22 3 25 -21 25 -43 0 -51 11 -55 65 -3 43 -6 50 -25 53 -23 3 -23 2
-23 -107z m70 -107 c0 -72 1 -74 24 -74 22 0 25 -5 31 -47 3 -27 7 -63 10 -80
2 -18 0 -33 -6 -33 -5 0 -9 -5 -9 -11 0 -5 4 -7 10 -4 6 3 10 -1 10 -9 0 -10
-9 -16 -25 -16 -14 0 -25 -4 -25 -10 0 -5 12 -10 28 -10 21 0 24 -2 12 -10
-13 -9 -13 -11 0 -20 13 -8 12 -10 -2 -10 -10 0 -18 7 -18 15 0 18 -16 20 -23
3 -3 -7 -6 6 -6 29 -1 32 3 43 17 46 11 3 7 5 -10 6 -25 1 -26 3 -21 36 4 23
2 35 -6 35 -15 0 -14 47 2 54 6 3 2 3 -11 0 -28 -7 -44 24 -19 38 14 7 17 25
17 84 0 48 4 73 10 69 6 -3 10 -40 10 -81z m108 9 c2 -8 -5 -13 -17 -13 -12 0
-21 -4 -21 -10 0 -5 9 -10 20 -10 11 0 20 -5 20 -11 0 -6 -9 -8 -20 -4 -13 4
-20 2 -21 -7 -1 -7 -4 1 -8 17 -4 17 -5 36 -3 43 6 16 44 12 50 -5z m-131
-225 c-3 -7 -5 -2 -5 12 0 14 2 19 5 13 2 -7 2 -19 0 -25z m-2 -48 c3 -5 1
-10 -4 -10 -6 0 -11 5 -11 10 0 6 2 10 4 10 3 0 8 -4 11 -10z m179 -156 c10
-27 7 -44 -9 -44 -10 0 -15 10 -15 30 0 32 14 40 24 14z m260 -127 c0 -9 -1
-37 -2 -61 -2 -39 -4 -44 -23 -39 -14 4 -17 9 -10 16 6 6 11 33 11 60 0 34 4
47 13 45 6 -3 12 -12 11 -21z m-39 -37 c3 -5 1 -10 -4 -10 -6 0 -11 5 -11 10
0 6 2 10 4 10 3 0 8 -4 11 -10z"/>
<path d="M2404 823 c3 -32 6 -65 7 -73 1 -8 5 10 9 40 4 30 11 63 15 73 6 13
2 17 -15 17 -21 0 -22 -3 -16 -57z"/>
<path d="M750 839 c0 -15 -5 -19 -15 -15 -8 3 -15 1 -15 -4 0 -6 10 -10 23
-10 17 0 22 6 22 25 0 14 -3 25 -7 25 -5 0 -8 -9 -8 -21z"/>
<path d="M785 850 c3 -5 8 -10 11 -10 2 0 4 5 4 10 0 6 -5 10 -11 10 -5 0 -7
-4 -4 -10z"/>
<path d="M520 825 c0 -9 6 -12 15 -9 8 4 12 10 9 15 -8 14 -24 10 -24 -6z"/>
<path d="M2116 828 c4 -6 -1 -8 -13 -4 -24 8 -46 -14 -34 -33 7 -11 22 -9 80
9 39 13 70 25 68 27 -10 9 -106 10 -101 1z m41 -14 c-3 -3 -12 -4 -19 -1 -8 3
-5 6 6 6 11 1 17 -2 13 -5z"/>
<path d="M1081 814 c0 -11 3 -14 6 -6 3 7 2 16 -1 19 -3 4 -6 -2 -5 -13z"/>
<path d="M1305 799 c-21 -16 -40 -31 -42 -32 -7 -8 134 7 142 14 5 5 1 9 -12
9 -13 0 -20 6 -19 17 2 28 -26 24 -69 -8z m42 -15 c-3 -3 -12 -4 -19 -1 -8 3
-5 6 6 6 11 1 17 -2 13 -5z"/>
<path d="M184 809 c-2 -4 0 -10 5 -13 5 -3 7 -16 5 -29 -3 -17 -1 -16 8 6 7
15 15 27 20 27 4 0 8 4 8 8 0 10 -40 10 -46 1z"/>
<path d="M1508 803 c7 -3 16 -2 19 1 4 3 -2 6 -13 5 -11 0 -14 -3 -6 -6z"/>
<path d="M1630 783 c1 -25 2 -26 14 -10 17 23 24 22 29 -5 3 -17 5 -14 6 10 1
28 -2 32 -24 32 -21 0 -25 -5 -25 -27z"/>
<path d="M868 793 c12 -2 30 -2 40 0 9 3 -1 5 -23 4 -22 0 -30 -2 -17 -4z"/>
<path d="M250 773 c-12 -3 -14 -23 -12 -118 l3 -115 27 6 c15 4 28 7 29 8 1 1
-1 50 -4 108 -6 106 -11 118 -43 111z"/>
<path d="M1787 773 c-8 -8 -9 -87 -1 -95 3 -3 14 -4 25 -1 15 4 19 14 19 54 0
41 -3 49 -18 49 -10 0 -22 -3 -25 -7z m33 -42 c0 -17 -4 -33 -10 -36 -6 -4
-10 8 -10 29 0 20 5 36 10 36 6 0 10 -13 10 -29z"/>
<path d="M1850 725 c0 -30 4 -55 10 -55 5 0 8 16 6 36 -3 48 12 54 17 7 3 -32
4 -29 5 15 2 46 0 52 -18 52 -18 0 -20 -7 -20 -55z"/>
<path d="M1912 760 c0 -14 2 -19 5 -12 2 6 2 18 0 25 -3 6 -5 1 -5 -13z"/>
<path d="M1930 744 c0 -21 -4 -33 -10 -29 -5 3 -10 3 -11 -2 0 -4 -2 -16 -4
-25 -2 -12 3 -18 16 -18 13 0 19 -7 20 -22 0 -22 1 -22 8 -3 5 11 4 28 -1 39
-6 10 -6 21 -2 25 16 11 15 71 -1 71 -10 0 -15 -11 -15 -36z"/>
<path d="M310 720 c0 -43 3 -50 20 -50 18 0 20 6 18 53 l-1 52 -7 -45 -7 -45
-1 43 c-3 59 -22 53 -22 -8z"/>
<path d="M2007 716 c7 -58 8 -60 22 -51 6 3 11 26 11 49 0 35 -4 45 -19 49
-18 4 -19 1 -14 -47z"/>
<path d="M2230 750 c0 -24 6 -25 25 -6 12 12 12 15 -1 20 -23 9 -24 8 -24 -14z"/>
<path d="M652 748 c-17 -17 -15 -38 3 -38 9 0 15 9 15 25 0 29 -1 30 -18 13z"/>
<path d="M2154 746 c-3 -8 -4 -29 -2 -47 3 -36 30 -51 51 -30 9 9 5 11 -13 9
-17 -2 -25 3 -28 15 -3 15 0 18 17 12 12 -4 21 -2 21 4 0 6 -9 11 -20 11 -11
0 -20 7 -20 15 0 8 7 15 15 15 8 0 15 -4 15 -10 0 -5 4 -10 10 -10 5 0 7 7 4
15 -8 19 -43 20 -50 1z"/>
<path d="M540 700 c0 -37 4 -50 14 -50 11 0 16 14 19 48 l3 47 2 -47 c3 -64
22 -62 22 2 0 49 -1 50 -30 50 -29 0 -30 -1 -30 -50z"/>
<path d="M612 695 c-1 -31 3 -55 8 -55 6 0 10 25 10 55 0 30 -4 55 -8 55 -4 0
-9 -25 -10 -55z"/>
<path d="M1392 730 c0 -14 2 -19 5 -12 2 6 2 18 0 25 -3 6 -5 1 -5 -13z"/>
<path d="M702 693 c-2 -40 2 -53 12 -53 8 0 17 7 20 16 4 11 2 15 -8 11 -11
-5 -16 4 -19 36 -3 40 -4 39 -5 -10z"/>
<path d="M964 729 c-3 -5 -2 -24 2 -43 3 -19 2 -41 -3 -48 -5 -8 -10 4 -14 37
l-6 50 -1 -52 c-1 -29 1 -53 6 -53 15 0 30 15 35 35 5 19 5 19 12 -2 4 -13 11
-20 16 -17 16 10 9 32 -11 39 -11 3 -20 15 -20 26 0 22 11 24 28 7 9 -9 12 -8
12 4 0 17 -47 31 -56 17z"/>
<path d="M1038 689 c-2 -30 2 -59 9 -69 7 -10 9 -21 5 -25 -4 -4 2 -6 12 -4
24 5 34 29 12 29 -9 0 -16 8 -16 20 0 13 5 18 15 14 8 -4 15 -1 15 5 0 6 -8
11 -19 11 -14 0 -17 6 -13 25 2 14 11 25 19 25 8 0 11 5 8 10 -3 6 -14 10 -25
10 -15 0 -19 -9 -22 -51z"/>
<path d="M1130 691 c0 -28 5 -51 10 -51 6 0 10 18 10 40 0 22 0 43 1 47 0 4
-4 9 -10 11 -7 2 -11 -15 -11 -47z"/>
<path d="M1187 733 c-2 -5 -2 -29 1 -55 3 -38 8 -48 22 -48 25 0 34 79 12 98
-18 14 -29 15 -35 5z m29 -40 c-10 -10 -19 5 -10 18 6 11 8 11 12 0 2 -7 1
-15 -2 -18z m-1 -33 c3 -5 1 -10 -4 -10 -6 0 -11 5 -11 10 0 6 2 10 4 10 3 0
8 -4 11 -10z"/>
<path d="M1252 683 c3 -50 6 -58 23 -58 17 0 20 8 23 53 2 32 0 52 -7 52 -7 0
-11 -21 -11 -51 0 -34 -4 -48 -11 -43 -7 4 -9 24 -5 55 5 33 3 49 -4 49 -7 0
-10 -21 -8 -57z"/>
<path d="M1310 719 c0 -11 5 -17 10 -14 6 3 10 13 10 21 0 8 -4 14 -10 14 -5
0 -10 -9 -10 -21z"/>
<path d="M1342 715 c0 -16 2 -22 5 -12 2 9 2 23 0 30 -3 6 -5 -1 -5 -18z"/>
<path d="M2790 723 c0 -13 5 -23 10 -23 13 0 13 11 0 30 -8 12 -10 11 -10 -7z"/>
<path d="M720 705 c0 -14 5 -25 10 -25 6 0 10 11 10 25 0 14 -4 25 -10 25 -5
0 -10 -11 -10 -25z"/>
<path d="M750 710 c0 -11 5 -20 10 -20 6 0 10 9 10 20 0 11 -4 20 -10 20 -5 0
-10 -9 -10 -20z"/>
<path d="M781 703 l1 -28 8 25 c7 20 8 18 6 -15 -2 -21 -9 -41 -16 -43 -9 -3
-11 1 -7 12 4 10 1 16 -8 16 -8 0 -15 -9 -15 -20 0 -16 7 -20 30 -20 29 0 30
1 30 50 0 38 -4 50 -15 50 -10 0 -15 -9 -14 -27z"/>
<path d="M827 715 c-4 -8 -2 -17 3 -20 6 -4 10 3 10 14 0 25 -6 27 -13 6z"/>
<path d="M860 710 c0 -11 5 -20 10 -20 6 0 10 9 10 20 0 11 -4 20 -10 20 -5 0
-10 -9 -10 -20z"/>
<path d="M897 698 c2 -18 4 -45 4 -60 1 -15 6 -25 11 -21 6 3 8 19 5 37 -2 17
-1 41 4 54 7 18 5 22 -9 22 -14 0 -18 -7 -15 -32z"/>
<path d="M1655 720 c3 -5 8 -10 11 -10 2 0 4 5 4 10 0 6 -5 10 -11 10 -5 0 -7
-4 -4 -10z"/>
<path d="M2067 723 c-2 -5 0 -21 4 -38 7 -29 7 -29 8 8 1 35 -3 46 -12 30z"/>
<path d="M2360 707 c0 -18 -5 -27 -16 -27 -11 0 -15 6 -11 20 4 17 0 20 -24
20 -25 0 -29 -4 -28 -27 l0 -28 11 25 c11 24 12 24 15 4 3 -15 13 -23 34 -26
25 -4 30 -1 36 19 3 14 0 30 -6 36 -8 8 -11 4 -11 -16z"/>
<path d="M2740 720 c0 -5 5 -10 11 -10 5 0 7 5 4 10 -3 6 -8 10 -11 10 -2 0
-4 -4 -4 -10z"/>
<path d="M2836 721 c-4 -7 -5 -15 -2 -18 9 -9 19 4 14 18 -4 11 -6 11 -12 0z"/>
<path d="M2238 695 c-4 -19 -1 -25 12 -25 13 0 17 6 13 20 -8 31 -20 33 -25 5z"/>
<path d="M2405 712 c-11 -7 -12 -48 -2 -58 7 -8 20 41 15 55 -1 6 -8 7 -13 3z"/>
<path d="M2634 695 c-4 -9 -4 -19 0 -22 3 -4 6 1 6 10 0 10 4 17 10 17 5 0 7
-13 4 -30 -4 -20 -2 -30 5 -30 16 0 10 62 -6 68 -7 2 -16 -4 -19 -13z"/>
<path d="M642 668 c5 -32 28 -35 28 -4 0 17 -5 26 -16 26 -10 0 -14 -7 -12
-22z"/>
<path d="M1640 661 c0 -17 2 -31 4 -31 8 0 13 51 5 56 -5 3 -9 -9 -9 -25z"/>
<path d="M1540 656 c0 -14 4 -26 9 -26 5 0 12 -8 14 -17 3 -10 5 -4 6 13 0 17
-6 37 -14 44 -13 11 -15 8 -15 -14z"/>
<path d="M2926 672 c-9 -15 -18 -262 -9 -263 15 -1 72 -9 85 -11 10 -2 14 30
16 140 l3 142 -45 0 c-25 0 -47 -4 -50 -8z"/>
<path d="M822 645 c0 -16 2 -22 5 -12 2 9 2 23 0 30 -3 6 -5 -1 -5 -18z"/>
<path d="M864 659 c-3 -6 1 -18 10 -27 15 -15 16 -14 16 11 0 27 -13 36 -26
16z"/>
<path d="M1315 659 c-10 -15 3 -25 16 -12 7 7 7 13 1 17 -6 3 -14 1 -17 -5z"/>
<path d="M1590 650 c6 -11 15 -20 20 -20 6 0 10 9 10 20 0 13 -7 20 -20 20
-18 0 -19 -3 -10 -20z"/>
<path d="M1 644 c0 -11 3 -14 6 -6 3 7 2 16 -1 19 -3 4 -6 -2 -5 -13z"/>
<path d="M1448 653 c-4 -7 -3 -168 1 -210 2 -22 41 -14 50 9 10 29 3 58 -16
58 -8 0 -13 6 -10 13 2 6 11 11 21 9 23 -4 20 19 -4 25 -26 7 -26 33 1 33 17
0 20 5 17 33 -2 26 -8 33 -30 35 -14 2 -28 0 -30 -5z m42 -23 c0 -11 -4 -20
-10 -20 -5 0 -10 9 -10 20 0 11 5 20 10 20 6 0 10 -9 10 -20z m0 -161 c0 -10
-7 -19 -15 -19 -15 0 -21 31 -9 43 11 10 24 -3 24 -24z"/>
<path d="M1661 634 c0 -11 3 -14 6 -6 3 7 2 16 -1 19 -3 4 -6 -2 -5 -13z"/>
<path d="M2230 634 c0 -8 5 -12 10 -9 6 3 10 10 10 16 0 5 -4 9 -10 9 -5 0
-10 -7 -10 -16z"/>
<path d="M1330 626 c0 -24 12 -46 24 -46 8 0 11 11 8 30 -4 30 -32 43 -32 16z"/>
<path d="M1902 620 c0 -14 2 -19 5 -12 2 6 2 18 0 25 -3 6 -5 1 -5 -13z"/>
<path d="M1974 626 c-4 -9 -13 -15 -20 -12 -8 3 -14 1 -14 -4 0 -6 6 -10 14
-10 16 0 41 28 33 37 -4 3 -9 -2 -13 -11z"/>
<path d="M2305 630 c-3 -5 3 -10 14 -10 12 0 21 5 21 10 0 6 -6 10 -14 10 -8
0 -18 -4 -21 -10z"/>
<path d="M2401 583 c1 -35 6 -63 11 -63 11 0 10 92 -2 110 -8 11 -10 -3 -9
-47z"/>
<path d="M318 591 c5 -52 32 -46 31 8 0 29 -2 32 -9 16 -7 -17 -9 -17 -9 -2
-1 9 -4 17 -9 17 -4 0 -6 -18 -4 -39z"/>
<path d="M360 596 c0 -26 4 -36 16 -36 11 0 14 8 12 32 -4 46 -28 49 -28 4z"/>
<path d="M400 608 c0 -13 5 -30 10 -38 7 -11 10 -5 10 23 0 20 -4 37 -10 37
-5 0 -10 -10 -10 -22z"/>
<path d="M2030 615 c-11 -13 -10 -14 4 -9 9 3 16 10 16 15 0 13 -6 11 -20 -6z"/>
<path d="M1590 610 c0 -5 7 -10 15 -10 8 0 15 5 15 10 0 6 -7 10 -15 10 -8 0
-15 -4 -15 -10z"/>
<path d="M876 603 c-13 -14 -5 -33 14 -33 11 0 20 6 20 14 0 15 -24 28 -34 19z"/>
<path d="M2324 588 c-4 -13 -12 -27 -18 -31 -8 -6 -8 -10 2 -14 7 -3 12 -23
12 -49 0 -48 23 -63 34 -21 10 38 7 87 -6 87 -9 0 -9 3 0 12 16 16 15 38 -2
38 -8 0 -18 -10 -22 -22z"/>
<path d="M1631 584 c0 -11 3 -14 6 -6 3 7 2 16 -1 19 -3 4 -6 -2 -5 -13z"/>
<path d="M2301 584 c0 -11 3 -14 6 -6 3 7 2 16 -1 19 -3 4 -6 -2 -5 -13z"/>
<path d="M740 565 c0 -14 -5 -25 -11 -25 -7 0 -9 -9 -5 -22 3 -13 8 -56 10
-97 3 -58 7 -77 22 -88 18 -13 19 -10 22 98 3 112 -1 136 -18 109 -6 -9 -10
-10 -10 -3 0 6 5 15 10 18 15 10 12 35 -5 35 -9 0 -15 -9 -15 -25z"/>
<path d="M1563 530 c0 -30 2 -43 4 -27 2 15 2 39 0 55 -2 15 -4 2 -4 -28z"/>
<path d="M1580 564 c0 -8 4 -13 9 -10 5 4 11 0 14 -6 2 -7 8 -10 12 -6 12 11
-2 38 -20 38 -8 0 -15 -7 -15 -16z"/>
<path d="M1525 560 c-3 -5 -1 -10 4 -10 6 0 11 5 11 10 0 6 -2 10 -4 10 -3 0
-8 -4 -11 -10z"/>
<path d="M800 490 c0 -57 1 -60 25 -60 22 0 25 4 25 38 0 56 -10 82 -31 82
-17 0 -19 -8 -19 -60z m32 29 c6 -19 -4 -79 -12 -74 -11 7 -10 85 0 85 5 0 10
-5 12 -11z"/>
<path d="M877 544 c-4 -4 -7 -29 -7 -56 0 -52 14 -67 48 -52 15 7 14 8 -5 11
-15 3 -23 12 -23 24 0 24 17 25 23 2 3 -10 5 2 4 27 -2 32 -7 46 -17 48 -9 1
-19 0 -23 -4z"/>
<path d="M1169 545 c-1 -3 -1 -16 -1 -30 0 -64 3 -85 11 -85 5 0 11 9 14 20 3
11 1 18 -4 14 -5 -3 -9 9 -9 26 0 18 4 29 10 25 6 -3 10 0 10 8 0 13 -29 33
-31 22z"/>
<path d="M1224 537 c-3 -8 -4 -34 -2 -58 3 -40 6 -44 31 -47 15 -2 27 1 27 7
0 6 -9 11 -20 11 -11 0 -20 7 -20 15 0 18 12 19 29 3 10 -11 12 -4 9 32 -3 38
-7 46 -26 48 -12 2 -24 -3 -28 -11z m46 -28 c0 -5 -7 -9 -15 -9 -9 0 -12 6 -9
15 6 15 24 11 24 -6z"/>
<path d="M940 516 c0 -52 12 -86 31 -86 16 0 19 8 19 55 0 52 -1 55 -25 55
-20 0 -25 -5 -25 -24z m32 -32 c2 -19 0 -37 -4 -40 -4 -3 -8 13 -8 35 0 51 6
53 12 5z"/>
<path d="M1022 473 c2 -55 6 -68 21 -71 10 -2 17 3 17 12 0 9 -5 16 -11 16
-18 0 -3 80 18 95 17 13 15 14 -15 15 l-33 0 3 -67z"/>
<path d="M1090 516 c0 -53 12 -86 32 -86 14 0 18 5 14 18 -17 59 -17 70 1 81
15 9 13 10 -14 11 -28 0 -33 -4 -33 -24z"/>
<path d="M1350 474 c0 -52 4 -70 17 -79 12 -9 16 -24 15 -49 -2 -32 0 -36 23
-36 16 0 25 -6 25 -15 0 -8 -8 -15 -17 -15 -17 -1 -17 -1 0 -11 9 -5 17 -21
17 -35 0 -14 4 -22 10 -19 6 3 10 24 10 45 0 41 -20 70 -48 70 -12 0 -13 3 -4
12 8 8 15 8 27 -2 9 -8 15 -8 15 -2 0 6 -7 15 -16 20 -13 7 -16 26 -15 96 l1
86 -30 0 -30 0 0 -66z m43 -14 c-3 -17 -10 -33 -14 -36 -11 -6 -12 89 -2 100
12 11 23 -32 16 -64z"/>
<path d="M2488 533 c7 -3 16 -2 19 1 4 3 -2 6 -13 5 -11 0 -14 -3 -6 -6z"/>
<path d="M1528 505 c-3 -14 -1 -25 3 -25 5 0 9 4 9 9 0 5 3 16 6 25 3 9 2 16
-4 16 -5 0 -12 -11 -14 -25z"/>
<path d="M1770 471 c0 -53 2 -61 19 -61 29 0 43 25 39 72 -3 39 -6 43 -30 46
-28 3 -28 3 -28 -57z m40 34 c0 -8 -4 -15 -10 -15 -5 0 -10 7 -10 15 0 8 5 15
10 15 6 0 10 -7 10 -15z m0 -61 c0 -8 -4 -14 -10 -14 -5 0 -10 9 -10 21 0 11
5 17 10 14 6 -3 10 -13 10 -21z"/>
<path d="M1860 475 c0 -30 3 -55 8 -55 4 0 7 25 7 55 0 30 -3 55 -7 55 -4 0
-8 -25 -8 -55z"/>
<path d="M1910 475 c0 -67 18 -73 22 -7 3 42 5 47 26 44 12 -2 22 2 22 7 0 6
-16 11 -35 11 l-35 0 0 -55z"/>
<path d="M2010 491 c0 -21 3 -46 6 -55 8 -20 44 -21 44 -1 0 8 -7 15 -15 15
-8 0 -15 5 -15 11 0 7 9 9 21 6 18 -5 20 -1 17 26 -2 27 -8 33 -30 35 -26 3
-28 1 -28 -37z m40 15 c0 -3 -4 -8 -10 -11 -5 -3 -10 -1 -10 4 0 6 5 11 10 11
6 0 10 -2 10 -4z"/>
<path d="M2090 473 c5 -58 5 -58 8 -13 2 24 8 50 14 57 8 10 6 13 -8 13 -17 0
-18 -6 -14 -57z"/>
<path d="M2149 518 c0 -7 -2 -23 -3 -34 -4 -34 12 -64 33 -64 11 0 22 4 25 9
12 19 16 90 5 97 -7 4 -10 -5 -9 -27 3 -52 1 -59 -15 -59 -10 0 -15 11 -15 35
0 19 5 35 10 35 6 0 10 5 10 10 0 15 -40 12 -41 -2z"/>
<path d="M1580 506 c0 -6 4 -17 9 -24 6 -10 10 -7 13 10 3 16 0 25 -9 25 -7 0
-13 -5 -13 -11z"/>
<path d="M277 503 c-15 -4 -17 -13 -15 -56 3 -48 5 -52 31 -55 26 -3 27 -2 27
42 0 46 -8 77 -19 75 -3 -1 -14 -3 -24 -6z m20 -75 c-2 -13 -4 -3 -4 22 0 25
2 35 4 23 2 -13 2 -33 0 -45z"/>
<path d="M340 450 c0 -48 3 -60 16 -60 11 0 14 5 10 16 -3 9 -6 36 -6 60 0 24
-4 44 -10 44 -6 0 -10 -27 -10 -60z"/>
<path d="M394 494 c3 -9 6 -36 6 -60 0 -39 3 -44 22 -44 17 0 19 3 10 12 -14
14 -16 42 -2 33 14 -9 12 7 -6 43 -16 32 -41 46 -30 16z"/>
<path d="M444 465 c4 -26 10 -53 12 -60 6 -16 52 -26 60 -14 8 13 -6 50 -16
44 -5 -3 -6 -13 -3 -23 4 -10 2 -14 -3 -9 -5 5 -13 29 -19 54 -14 66 -40 72
-31 8z"/>
<path d="M485 490 c1 -11 7 -26 13 -32 9 -9 12 -5 12 20 0 20 -5 32 -13 32 -8
0 -13 -9 -12 -20z"/>
<path d="M542 448 c3 -55 5 -63 23 -63 11 0 21 7 23 16 2 11 -3 16 -14 15 -9
0 -19 5 -21 12 -3 7 4 12 16 12 16 0 21 6 21 29 0 27 -14 41 -41 41 -6 0 -9
-27 -7 -62z m38 21 c0 -5 -7 -9 -15 -9 -15 0 -20 12 -9 23 8 8 24 -1 24 -14z"/>
<path d="M610 450 c0 -33 4 -60 10 -60 6 0 10 27 10 60 0 33 -4 60 -10 60 -6
0 -10 -27 -10 -60z"/>
<path d="M1585 450 c3 -5 8 -10 11 -10 2 0 4 5 4 10 0 6 -5 10 -11 10 -5 0 -7
-4 -4 -10z"/>
<path d="M1950 445 c-10 -12 -9 -16 3 -21 20 -7 37 3 37 22 0 18 -24 18 -40
-1z"/>
<path d="M1513 383 c9 -2 25 -2 35 0 9 3 1 5 -18 5 -19 0 -27 -2 -17 -5z"/>
<path d="M1828 385 c-3 -4 -7 -92 -8 -196 l-1 -189 24 0 c13 0 27 3 31 7 4 5
13 8 19 8 7 0 13 8 15 17 2 13 -3 18 -17 18 -24 0 -26 14 -23 176 2 109 20
176 21 77 1 -35 5 -63 11 -63 6 0 10 16 10 35 0 30 3 35 24 35 13 0 26 7 30
15 3 8 1 15 -5 15 -7 0 -9 10 -4 28 5 21 4 24 -6 15 -8 -8 -18 -9 -30 -3 -12
7 -20 6 -25 -1 -4 -8 -9 -7 -15 2 -6 10 -9 6 -9 -13 0 -36 -28 -37 -32 -2 -2
14 -6 23 -10 19z m95 -55 c-7 -8 -22 24 -16 34 4 5 10 1 13 -10 4 -10 6 -21 3
-24z m-66 -37 c-3 -10 -5 -4 -5 12 0 17 2 24 5 18 2 -7 2 -21 0 -30z"/>
<path d="M2418 383 c-4 -8 -3 -45 2 -60 1 -5 1 -23 0 -40 -1 -26 2 -33 17 -32
10 0 13 3 6 5 -8 4 -9 13 -3 30 5 13 6 24 2 24 -4 0 0 5 8 10 12 8 13 11 1 19
-11 7 -11 9 0 14 10 4 8 6 -4 6 -10 1 -16 5 -12 10 3 5 1 12 -4 15 -5 4 -11 3
-13 -1z"/>
<path d="M2218 363 c7 -3 16 -2 19 1 4 3 -2 6 -13 5 -11 0 -14 -3 -6 -6z"/>
<path d="M2250 361 c0 -6 5 -13 10 -16 6 -3 10 1 10 9 0 9 -4 16 -10 16 -5 0
-10 -4 -10 -9z"/>
<path d="M2918 363 c7 -3 16 -2 19 1 4 3 -2 6 -13 5 -11 0 -14 -3 -6 -6z"/>
<path d="M3100 360 c0 -5 5 -10 11 -10 5 0 7 5 4 10 -3 6 -8 10 -11 10 -2 0
-4 -4 -4 -10z"/>
<path d="M468 330 c-3 -16 -1 -30 4 -30 4 0 8 14 8 30 0 17 -2 30 -4 30 -2 0
-6 -13 -8 -30z"/>
<path d="M494 330 c-1 -17 3 -30 7 -30 5 0 9 14 9 30 0 39 -15 39 -16 0z"/>
<path d="M300 280 c0 -55 11 -78 23 -47 4 10 6 10 6 0 1 -7 6 -13 11 -13 6 0
10 27 10 60 0 57 -1 60 -25 60 -24 0 -25 -3 -25 -60z m35 10 c3 -5 -1 -10 -10
-10 -9 0 -13 5 -10 10 3 6 8 10 10 10 2 0 7 -4 10 -10z"/>
<path d="M1612 270 c2 -37 7 -64 13 -63 15 3 18 43 3 43 -9 1 -7 5 5 14 10 8
15 20 11 29 -7 19 14 33 29 18 16 -16 29 -13 25 6 -2 13 -14 18 -46 18 l-43 0
3 -65z"/>
<path d="M1773 274 c-1 -45 2 -64 10 -61 17 5 22 127 5 127 -9 0 -13 -19 -15
-66z"/>
<path d="M531 314 c0 -11 3 -14 6 -6 3 7 2 16 -1 19 -3 4 -6 -2 -5 -13z"/>
<path d="M1465 310 c-9 -28 4 -80 22 -87 27 -11 44 20 37 65 -5 35 -10 42 -30
42 -14 0 -25 -8 -29 -20z m34 -11 c-11 -8 -10 -12 6 -25 17 -13 18 -16 5 -24
-25 -16 -30 -12 -30 23 0 37 7 50 22 40 6 -3 5 -9 -3 -14z"/>
<path d="M1538 274 c3 -45 7 -54 23 -54 15 0 19 7 19 33 0 17 3 42 6 54 5 19
2 22 -23 21 -28 -1 -28 -2 -25 -54z m28 -32 c-11 -10 -14 3 -8 33 l7 30 3 -28
c2 -16 1 -31 -2 -35z"/>
<path d="M1720 275 c0 -37 4 -55 13 -55 8 0 12 18 12 55 0 37 -4 55 -12 55 -9
0 -13 -18 -13 -55z"/>
<path d="M1976 308 c-9 -34 -7 -48 5 -48 6 0 8 8 4 19 -3 11 -1 22 5 26 12 8
13 25 1 25 -5 0 -11 -10 -15 -22z"/>
<path d="M2928 322 c-22 -3 -28 -9 -28 -26 0 -24 35 -43 46 -25 3 5 -2 9 -10
9 -9 0 -16 7 -16 16 0 10 6 14 15 11 8 -4 17 -2 21 4 8 14 4 15 -28 11z"/>
<path d="M2068 279 c2 -21 5 -39 7 -39 9 0 10 62 1 70 -8 6 -10 -3 -8 -31z"/>
<path d="M1340 295 c0 -8 0 -18 -1 -22 0 -4 4 -9 10 -11 6 -2 11 4 11 13 0 10
5 13 13 9 8 -5 8 -2 -2 9 -17 21 -31 22 -31 2z"/>
<path d="M2121 293 c7 -10 15 -20 16 -22 2 -2 3 5 3 17 0 14 -6 22 -16 22 -14
0 -15 -3 -3 -17z"/>
<path d="M2238 263 c5 -48 19 -70 36 -53 5 5 5 29 2 54 -6 35 -11 46 -25 46
-16 0 -18 -6 -13 -47z m32 -5 c0 -5 -4 -8 -10 -8 -5 0 -10 10 -10 23 0 18 2
19 10 7 5 -8 10 -18 10 -22z"/>
<path d="M2300 260 c0 -27 4 -50 9 -50 17 0 23 20 11 35 -9 11 -9 15 -1 15 6
0 11 11 11 25 0 16 -6 25 -15 25 -11 0 -15 -12 -15 -50z"/>
<path d="M1940 271 c0 -17 2 -31 4 -31 8 0 13 51 5 56 -5 3 -9 -9 -9 -25z"/>
<path d="M1247 283 c-13 -12 -7 -25 8 -19 18 7 21 -20 3 -28 -9 -3 -8 -8 5
-16 18 -12 24 -50 7 -50 -5 0 -10 8 -10 17 0 16 -1 16 -17 0 -16 -16 -16 -19
-3 -27 21 -14 47 -12 52 3 3 6 4 26 3 42 -1 17 -3 42 -3 58 -2 19 -7 27 -20
27 -10 0 -22 -3 -25 -7z"/>
<path d="M1660 286 c0 -2 7 -6 15 -10 8 -3 15 -1 15 4 0 6 -7 10 -15 10 -8 0
-15 -2 -15 -4z"/>
<path d="M2181 274 c0 -11 3 -14 6 -6 3 7 2 16 -1 19 -3 4 -6 -2 -5 -13z"/>
<path d="M2206 258 c6 -45 14 -48 14 -5 0 21 -4 37 -9 37 -4 0 -7 -14 -5 -32z"/>
<path d="M856 264 c-10 -9 -16 -33 -16 -60 0 -44 1 -45 28 -42 35 4 41 39 13
67 -25 25 -27 35 -6 27 9 -3 15 0 15 9 0 19 -15 19 -34 -1z m24 -79 c0 -8 -4
-15 -10 -15 -5 0 -10 7 -10 15 0 8 5 15 10 15 6 0 10 -7 10 -15z"/>
<path d="M918 233 c-3 -26 -3 -54 0 -60 5 -17 49 -17 54 -1 9 25 -4 58 -23 58
-19 0 -25 11 -12 23 3 4 13 1 21 -5 12 -10 14 -9 11 7 -3 11 -14 21 -26 23
-18 3 -21 -3 -25 -45z m42 -33 c0 -5 -7 -10 -15 -10 -8 0 -15 5 -15 10 0 6 7
10 15 10 8 0 15 -4 15 -10z"/>
<path d="M995 270 c-3 -5 -3 -33 1 -61 8 -58 18 -49 27 24 5 37 4 47 -8 47 -7
0 -17 -4 -20 -10z"/>
<path d="M1060 220 l0 -60 30 0 c30 0 30 1 30 54 0 30 -5 58 -11 61 -17 11
-22 -1 -9 -24 9 -17 8 -21 -5 -21 -9 0 -15 9 -15 25 0 14 -4 25 -10 25 -6 0
-10 -27 -10 -60z m40 -25 c0 -8 -4 -15 -10 -15 -5 0 -10 7 -10 15 0 8 5 15 10
15 6 0 10 -7 10 -15z"/>
<path d="M1147 188 c3 -51 8 -95 10 -98 11 -13 23 30 18 67 -4 24 -2 44 5 48
6 4 10 -11 10 -42 0 -87 17 -81 22 8 5 91 0 116 -15 78 l-10 -24 -10 28 c-6
15 -16 27 -23 27 -10 0 -11 -22 -7 -92z"/>
<path d="M370 251 c0 -12 6 -21 16 -21 9 0 14 7 12 17 -5 25 -28 28 -28 4z"/>
<path d="M410 245 c0 -14 5 -25 10 -25 6 0 10 4 10 9 0 5 3 16 6 25 4 11 1 16
-10 16 -10 0 -16 -9 -16 -25z"/>
<path d="M582 213 c2 -44 7 -58 18 -58 16 0 17 17 4 68 -5 21 -3 27 10 27 9 0
16 5 16 10 0 6 -11 10 -25 10 -25 0 -26 -2 -23 -57z"/>
<path d="M650 209 c0 -65 15 -73 22 -12 3 21 8 46 12 56 6 13 3 17 -13 17 -19
0 -21 -6 -21 -61z"/>
<path d="M710 223 c0 -59 11 -79 36 -68 18 8 18 8 1 12 -13 4 -17 13 -15 44 2
24 8 39 16 39 7 0 10 5 7 10 -3 6 -15 10 -26 10 -16 0 -19 -7 -19 -47z"/>
<path d="M780 218 c0 -32 4 -58 10 -58 13 0 13 80 0 100 -7 11 -10 -2 -10 -42z"/>
<path d="M810 260 c0 -5 5 -10 10 -10 6 0 10 5 10 10 0 6 -4 10 -10 10 -5 0
-10 -4 -10 -10z"/>
<path d="M1310 261 c0 -7 5 -22 11 -33 8 -14 8 -23 0 -31 -6 -6 -11 -46 -11
-89 0 -70 2 -78 19 -78 16 0 19 7 18 39 -2 26 -6 37 -14 34 -17 -7 -16 2 2 20
23 24 22 90 -3 122 -12 15 -22 22 -22 16z"/>
<path d="M1366 254 c-4 -9 -2 -22 4 -29 5 -6 7 -15 4 -18 -4 -4 5 -1 20 6 31
14 34 27 5 27 -11 0 -18 4 -14 9 3 5 1 12 -4 15 -5 3 -12 -1 -15 -10z"/>
<path d="M2988 264 c-5 -4 -8 -31 -8 -61 0 -52 0 -53 30 -53 29 0 40 13 20 25
-6 3 -7 17 -4 31 4 14 2 24 -5 24 -6 0 -12 -6 -12 -12 -1 -7 -4 2 -8 20 -3 19
-9 30 -13 26z"/>
<path d="M1670 235 c0 -16 6 -25 15 -25 8 0 15 9 15 19 0 10 -7 21 -15 25 -11
4 -15 -1 -15 -19z"/>
<path d="M2100 245 c0 -8 7 -15 15 -15 8 0 15 7 15 15 0 8 -7 15 -15 15 -8 0
-15 -7 -15 -15z"/>
<path d="M1970 206 c0 -24 -4 -47 -9 -50 -9 -6 -6 -79 4 -96 3 -6 -3 -10 -15
-10 -16 0 -20 -4 -16 -16 3 -9 6 -21 6 -27 0 -7 5 -6 11 3 8 11 12 12 16 3 2
-7 11 -13 19 -13 14 0 19 17 16 53 -1 9 5 17 13 17 10 0 13 -9 10 -35 -3 -20
0 -35 5 -35 6 0 10 16 10 35 0 19 0 38 0 43 1 4 -8 8 -19 10 -18 3 -21 12 -23
79 -2 50 -7 78 -15 81 -9 2 -13 -10 -13 -42z"/>
<path d="M2170 225 c0 -8 5 -15 10 -15 6 0 10 7 10 15 0 8 -4 15 -10 15 -5 0
-10 -7 -10 -15z"/>
<path d="M2436 208 c1 -13 3 -26 3 -30 2 -21 19 -4 23 22 4 23 1 30 -12 30
-11 0 -16 -7 -14 -22z"/>
<path d="M2908 223 c6 -2 18 -2 25 0 6 3 1 5 -13 5 -14 0 -19 -2 -12 -5z"/>
<path d="M1432 180 c0 -14 2 -19 5 -12 2 6 2 18 0 25 -3 6 -5 1 -5 -13z"/>
<path d="M1677 168 c7 -38 14 -48 20 -30 3 6 11 12 20 12 22 0 9 -25 -15 -28
-12 -2 -22 -9 -22 -16 0 -22 13 -26 26 -8 12 16 13 15 14 -5 0 -16 -6 -23 -20
-23 -15 0 -20 -7 -20 -25 0 -16 6 -25 15 -25 8 0 15 9 15 20 0 11 6 20 14 20
16 0 26 30 26 81 0 33 -2 36 -25 31 -17 -3 -27 1 -31 12 -11 29 -24 17 -17
-16z"/>
<path d="M1382 170 c0 -14 2 -19 5 -12 2 6 2 18 0 25 -3 6 -5 1 -5 -13z"/>
<path d="M2257 174 c-4 -4 -7 -14 -7 -23 0 -11 3 -12 11 -4 6 6 10 16 7 23 -2
6 -7 8 -11 4z"/>
<path d="M1478 150 c-7 -24 -3 -38 8 -28 3 4 4 17 2 30 l-3 23 -7 -25z"/>
<path d="M1520 135 c0 -29 4 -35 21 -35 16 0 19 4 14 18 -4 9 -10 25 -12 35
-9 30 -23 19 -23 -18z"/>
<path d="M1561 154 c0 -11 3 -14 6 -6 3 7 2 16 -1 19 -3 4 -6 -2 -5 -13z"/>
<path d="M2442 130 c1 -16 7 -30 13 -30 7 0 10 12 7 30 -2 17 -8 30 -13 30 -5
0 -8 -13 -7 -30z"/>
<path d="M2030 139 c0 -5 5 -7 10 -4 6 3 10 8 10 11 0 2 -4 4 -10 4 -5 0 -10
-5 -10 -11z"/>
<path d="M1431 88 c1 -29 0 -59 -2 -67 -2 -7 2 -16 10 -19 10 -3 13 1 8 17 -3
11 -2 21 1 21 4 0 7 23 7 50 0 33 -4 50 -12 50 -9 0 -13 -17 -12 -52z"/>
<path d="M2965 130 c-4 -6 16 -10 52 -9 42 0 52 3 38 9 -28 12 -83 12 -90 0z"/>
<path d="M1040 118 c0 -23 27 -41 47 -33 15 6 15 8 3 12 -8 3 -23 12 -32 21
-16 14 -18 14 -18 0z"/>
<path d="M1620 111 c0 -12 6 -21 16 -21 9 0 14 7 12 17 -5 25 -28 28 -28 4z"/>
<path d="M1001 91 c-10 -17 -9 -21 3 -21 20 0 27 13 16 29 -6 11 -10 9 -19 -8z"/>
<path d="M3085 100 c-3 -5 -1 -10 4 -10 6 0 11 5 11 10 0 6 -2 10 -4 10 -3 0
-8 -4 -11 -10z"/>
<path d="M2953 87 c-3 -6 -1 -7 5 -3 7 4 12 2 12 -5 0 -8 3 -9 13 0 8 6 17 8
20 4 4 -3 7 -2 7 4 0 14 -48 14 -57 0z"/>
<path d="M2070 45 c0 -40 2 -45 23 -44 12 0 16 3 10 6 -8 2 -13 22 -13 44 0
21 -4 39 -10 39 -5 0 -10 -20 -10 -45z"/>
<path d="M2100 80 c0 -5 5 -10 10 -10 6 0 10 5 10 10 0 6 -4 10 -10 10 -5 0
-10 -4 -10 -10z"/>
<path d="M2192 48 c4 -55 25 -61 30 -9 2 28 -1 42 -10 46 -22 8 -23 7 -20 -37z"/>
<path d="M2323 46 c1 -31 6 -42 15 -38 7 2 11 11 8 19 -3 8 -6 26 -6 39 0 13
-4 24 -10 24 -5 0 -8 -20 -7 -44z"/>
<path d="M2370 70 c0 -11 5 -20 10 -20 6 0 10 9 10 20 0 11 -4 20 -10 20 -5 0
-10 -9 -10 -20z"/>
<path d="M2140 70 c0 -5 5 -10 10 -10 6 0 8 -13 5 -30 -3 -17 -1 -30 5 -30 5
0 10 18 10 40 0 29 -4 40 -15 40 -8 0 -15 -4 -15 -10z"/>
<path d="M2250 40 c0 -32 4 -40 19 -40 14 0 17 6 13 25 -2 15 0 25 7 25 6 0
11 7 11 15 0 9 -9 15 -25 15 -22 0 -25 -4 -25 -40z"/>
<path d="M2415 70 c3 -5 8 -10 11 -10 2 0 4 5 4 10 0 6 -5 10 -11 10 -5 0 -7
-4 -4 -10z"/>
<path d="M641 51 c-17 -31 -13 -51 9 -51 15 0 20 7 20 29 0 37 -15 48 -29 22z"/>
<path d="M1470 50 c0 -5 5 -10 10 -10 6 0 10 5 10 10 0 6 -4 10 -10 10 -5 0
-10 -4 -10 -10z"/>
<path d="M1160 37 c0 -7 5 -19 10 -27 9 -13 11 -13 20 0 14 22 12 27 -10 33
-12 3 -20 0 -20 -6z"/>
<path d="M1212 29 c1 -12 9 -24 16 -27 9 -3 13 3 10 19 -1 12 -9 24 -16 27 -9
3 -13 -3 -10 -19z"/>
<path d="M1250 30 c0 -10 5 -22 10 -25 6 -3 10 1 10 10 0 9 5 13 10 10 6 -3
10 0 10 7 0 8 -9 14 -20 15 -13 1 -20 -4 -20 -17z"/>
<path d="M1725 25 c0 -14 3 -25 8 -25 4 0 7 11 7 25 0 14 -3 25 -7 25 -5 0 -8
-11 -8 -25z"/>
<path d="M1075 20 c-16 -17 -16 -20 -2 -20 8 0 18 6 20 13 4 9 6 9 6 0 1 -7
10 -13 22 -13 15 0 19 4 15 16 -3 9 -6 18 -6 20 0 12 -40 1 -55 -16z"/>
<path d="M1532 20 c0 -14 2 -19 5 -12 2 6 2 18 0 25 -3 6 -5 1 -5 -13z"/>
<path d="M2410 30 c0 -5 5 -10 10 -10 6 0 10 5 10 10 0 6 -4 10 -10 10 -5 0
-10 -4 -10 -10z"/>
<path d="M824 15 c-16 -12 -17 -14 -2 -15 9 0 19 6 21 13 4 10 6 10 6 0 1 -7
8 -13 16 -13 9 0 12 6 9 15 -8 19 -25 19 -50 0z"/>
<path d="M938 23 c-16 -2 -28 -9 -28 -14 0 -15 73 -6 78 9 4 12 0 12 -50 5z"/>
<path d="M1476 15 c4 -8 7 -15 9 -15 2 0 5 7 9 15 3 9 0 15 -9 15 -9 0 -12 -6
-9 -15z"/>
<path d="M2370 20 c0 -5 7 -7 15 -4 8 4 15 8 15 10 0 2 -7 4 -15 4 -8 0 -15
-4 -15 -10z"/>
<path d="M710 10 c0 -5 12 -10 28 -9 24 0 25 1 7 9 -27 12 -35 12 -35 0z"/>
<path d="M1288 3 c7 -3 16 -2 19 1 4 3 -2 6 -13 5 -11 0 -14 -3 -6 -6z"/>
</g>
</svg>
